%TF.GenerationSoftware,KiCad,Pcbnew,7.0.10-unknown-202401012134~036241c819~ubuntu22.04.1*%
%TF.CreationDate,2024-01-11T20:57:47+01:00*%
%TF.ProjectId,main_board,6d61696e-5f62-46f6-9172-642e6b696361,rev?*%
%TF.SameCoordinates,Original*%
%TF.FileFunction,Legend,Bot*%
%TF.FilePolarity,Positive*%
%FSLAX46Y46*%
G04 Gerber Fmt 4.6, Leading zero omitted, Abs format (unit mm)*
G04 Created by KiCad (PCBNEW 7.0.10-unknown-202401012134~036241c819~ubuntu22.04.1) date 2024-01-11 20:57:47*
%MOMM*%
%LPD*%
G01*
G04 APERTURE LIST*
%ADD10C,0.150000*%
%ADD11C,0.120000*%
G04 APERTURE END LIST*
D10*
X147793121Y-63593734D02*
X148411710Y-63950877D01*
X148411710Y-63950877D02*
X148559238Y-63981066D01*
X148559238Y-63981066D02*
X148689335Y-63946206D01*
X148689335Y-63946206D02*
X148802003Y-63846298D01*
X148802003Y-63846298D02*
X148849622Y-63763819D01*
X147316930Y-64418520D02*
X147555025Y-64006127D01*
X147555025Y-64006127D02*
X147991228Y-64202983D01*
X147991228Y-64202983D02*
X147926179Y-64220413D01*
X147926179Y-64220413D02*
X147837321Y-64279082D01*
X147837321Y-64279082D02*
X147718273Y-64485278D01*
X147718273Y-64485278D02*
X147711893Y-64591566D01*
X147711893Y-64591566D02*
X147729323Y-64656615D01*
X147729323Y-64656615D02*
X147787992Y-64745474D01*
X147787992Y-64745474D02*
X147994189Y-64864521D01*
X147994189Y-64864521D02*
X148100477Y-64870901D01*
X148100477Y-64870901D02*
X148165526Y-64853471D01*
X148165526Y-64853471D02*
X148254384Y-64794802D01*
X148254384Y-64794802D02*
X148373432Y-64588606D01*
X148373432Y-64588606D02*
X148379811Y-64482317D01*
X148379811Y-64482317D02*
X148362382Y-64417269D01*
D11*
%TO.C,J8*%
X95326814Y-69165738D02*
X88946814Y-80216222D01*
X95326814Y-69165738D02*
X93023186Y-67835738D01*
X88946814Y-80216222D02*
X86643186Y-78886222D01*
X95475000Y-66249072D02*
X94323186Y-65584072D01*
X94323186Y-65584072D02*
X93658186Y-66735886D01*
X93023186Y-67835738D02*
X86643186Y-78886222D01*
%TO.C,J7*%
X109140910Y-58302980D02*
X98090426Y-64682980D01*
X109140910Y-58302980D02*
X107810910Y-55999352D01*
X98090426Y-64682980D02*
X96760426Y-62379352D01*
X110727576Y-55851166D02*
X110062576Y-54699352D01*
X110062576Y-54699352D02*
X108910762Y-55364352D01*
X107810910Y-55999352D02*
X96760426Y-62379352D01*
%TO.C,J6*%
X127730000Y-55830000D02*
X114970000Y-55830000D01*
X127730000Y-55830000D02*
X127730000Y-53170000D01*
X114970000Y-55830000D02*
X114970000Y-53170000D01*
X130330000Y-54500000D02*
X130330000Y-53170000D01*
X130330000Y-53170000D02*
X129000000Y-53170000D01*
X127730000Y-53170000D02*
X114970000Y-53170000D01*
%TO.C,J5*%
X143934853Y-63286814D02*
X132884369Y-56906814D01*
X143934853Y-63286814D02*
X145264853Y-60983186D01*
X132884369Y-56906814D02*
X134214369Y-54603186D01*
X146851519Y-63435000D02*
X147516519Y-62283186D01*
X147516519Y-62283186D02*
X146364705Y-61618186D01*
X145264853Y-60983186D02*
X134214369Y-54603186D01*
%TO.C,J4*%
X156056814Y-75634557D02*
X149676814Y-64584073D01*
X157356814Y-77886223D02*
X156691814Y-76734409D01*
X156205000Y-78551223D02*
X157356814Y-77886223D01*
X147373186Y-65914073D02*
X149676814Y-64584073D01*
X153753186Y-76964557D02*
X156056814Y-75634557D01*
X153753186Y-76964557D02*
X147373186Y-65914073D01*
%TD*%
M02*
