%TF.GenerationSoftware,KiCad,Pcbnew,7.0.10-unknown-202401012134~036241c819~ubuntu22.04.1*%
%TF.CreationDate,2024-01-11T20:57:47+01:00*%
%TF.ProjectId,main_board,6d61696e-5f62-46f6-9172-642e6b696361,rev?*%
%TF.SameCoordinates,Original*%
%TF.FileFunction,Soldermask,Bot*%
%TF.FilePolarity,Negative*%
%FSLAX46Y46*%
G04 Gerber Fmt 4.6, Leading zero omitted, Abs format (unit mm)*
G04 Created by KiCad (PCBNEW 7.0.10-unknown-202401012134~036241c819~ubuntu22.04.1) date 2024-01-11 20:57:47*
%MOMM*%
%LPD*%
G01*
G04 APERTURE LIST*
G04 Aperture macros list*
%AMRoundRect*
0 Rectangle with rounded corners*
0 $1 Rounding radius*
0 $2 $3 $4 $5 $6 $7 $8 $9 X,Y pos of 4 corners*
0 Add a 4 corners polygon primitive as box body*
4,1,4,$2,$3,$4,$5,$6,$7,$8,$9,$2,$3,0*
0 Add four circle primitives for the rounded corners*
1,1,$1+$1,$2,$3*
1,1,$1+$1,$4,$5*
1,1,$1+$1,$6,$7*
1,1,$1+$1,$8,$9*
0 Add four rect primitives between the rounded corners*
20,1,$1+$1,$2,$3,$4,$5,0*
20,1,$1+$1,$4,$5,$6,$7,0*
20,1,$1+$1,$6,$7,$8,$9,0*
20,1,$1+$1,$8,$9,$2,$3,0*%
%AMHorizOval*
0 Thick line with rounded ends*
0 $1 width*
0 $2 $3 position (X,Y) of the first rounded end (center of the circle)*
0 $4 $5 position (X,Y) of the second rounded end (center of the circle)*
0 Add line between two ends*
20,1,$1,$2,$3,$4,$5,0*
0 Add two circle primitives to create the rounded ends*
1,1,$1,$2,$3*
1,1,$1,$4,$5*%
%AMRotRect*
0 Rectangle, with rotation*
0 The origin of the aperture is its center*
0 $1 length*
0 $2 width*
0 $3 Rotation angle, in degrees counterclockwise*
0 Add horizontal line*
21,1,$1,$2,0,0,$3*%
G04 Aperture macros list end*
%ADD10C,4.700000*%
%ADD11RoundRect,1.500000X-1.500000X-1.500000X1.500000X-1.500000X1.500000X1.500000X-1.500000X1.500000X0*%
%ADD12C,6.000000*%
%ADD13RoundRect,0.250000X0.675000X-0.600000X0.675000X0.600000X-0.675000X0.600000X-0.675000X-0.600000X0*%
%ADD14O,1.850000X1.700000*%
%ADD15RotRect,1.700000X1.700000X150.000000*%
%ADD16HorizOval,1.700000X0.000000X0.000000X0.000000X0.000000X0*%
%ADD17RotRect,1.700000X1.700000X120.000000*%
%ADD18HorizOval,1.700000X0.000000X0.000000X0.000000X0.000000X0*%
%ADD19R,1.700000X1.700000*%
%ADD20O,1.700000X1.700000*%
%ADD21RotRect,1.700000X1.700000X60.000000*%
%ADD22HorizOval,1.700000X0.000000X0.000000X0.000000X0.000000X0*%
%ADD23HorizOval,1.700000X0.000000X0.000000X0.000000X0.000000X0*%
%ADD24RotRect,1.700000X1.700000X30.000000*%
%ADD25RoundRect,0.250000X-0.620000X-0.845000X0.620000X-0.845000X0.620000X0.845000X-0.620000X0.845000X0*%
%ADD26O,1.740000X2.190000*%
G04 APERTURE END LIST*
D10*
%TO.C,H8*%
X204000000Y-109000000D03*
%TD*%
%TO.C,H7*%
X204000000Y-102750000D03*
%TD*%
%TO.C,H6*%
X204000000Y-96500000D03*
%TD*%
%TO.C,H5*%
X204000000Y-90250000D03*
%TD*%
D11*
%TO.C,J9*%
X197520000Y-139870000D03*
D12*
X204720000Y-139870000D03*
%TD*%
D10*
%TO.C,H2*%
X156000000Y-156000000D03*
%TD*%
D13*
%TO.C,J1*%
X104250000Y-102000000D03*
D14*
X104250000Y-99500000D03*
X104250000Y-97000000D03*
X104250000Y-94500000D03*
X104250000Y-92000000D03*
X104250000Y-89500000D03*
%TD*%
D15*
%TO.C,J8*%
X94810000Y-67400886D03*
D16*
X93540000Y-69600591D03*
X92270000Y-71800295D03*
X91000000Y-74000000D03*
X89730000Y-76199704D03*
X88460000Y-78399409D03*
%TD*%
D17*
%TO.C,J7*%
X109575762Y-56516166D03*
D18*
X107376057Y-57786166D03*
X105176353Y-59056166D03*
X102976648Y-60326166D03*
X100776944Y-61596166D03*
X98577239Y-62866166D03*
%TD*%
D19*
%TO.C,J6*%
X129000000Y-54500000D03*
D20*
X126460000Y-54500000D03*
X123920000Y-54500000D03*
X121380000Y-54500000D03*
X118840000Y-54500000D03*
X116300000Y-54500000D03*
%TD*%
D21*
%TO.C,J5*%
X145699705Y-62770000D03*
D22*
X143500000Y-61500000D03*
X141300296Y-60230000D03*
X139100591Y-58960000D03*
X136900887Y-57690000D03*
X134701182Y-56420000D03*
%TD*%
D23*
%TO.C,J4*%
X149190000Y-66400886D03*
X150460000Y-68600591D03*
X151730000Y-70800295D03*
X153000000Y-73000000D03*
X154270000Y-75199704D03*
D24*
X155540000Y-77399409D03*
%TD*%
D10*
%TO.C,H4*%
X89000000Y-86000000D03*
%TD*%
%TO.C,H3*%
X156000000Y-86000000D03*
%TD*%
%TO.C,H1*%
X89000000Y-156000000D03*
%TD*%
D25*
%TO.C,J2*%
X200130000Y-75000000D03*
D26*
X202670000Y-75000000D03*
X205210000Y-75000000D03*
X207750000Y-75000000D03*
X210290000Y-75000000D03*
X212830000Y-75000000D03*
%TD*%
D25*
%TO.C,J3*%
X227300000Y-75000000D03*
D26*
X229840000Y-75000000D03*
X232380000Y-75000000D03*
X234920000Y-75000000D03*
X237460000Y-75000000D03*
X240000000Y-75000000D03*
%TD*%
M02*
