%TF.GenerationSoftware,KiCad,Pcbnew,7.0.10-unknown-202401012134~036241c819~ubuntu22.04.1*%
%TF.CreationDate,2024-01-10T18:25:37+01:00*%
%TF.ProjectId,main_board,6d61696e-5f62-46f6-9172-642e6b696361,rev?*%
%TF.SameCoordinates,Original*%
%TF.FileFunction,Soldermask,Top*%
%TF.FilePolarity,Negative*%
%FSLAX46Y46*%
G04 Gerber Fmt 4.6, Leading zero omitted, Abs format (unit mm)*
G04 Created by KiCad (PCBNEW 7.0.10-unknown-202401012134~036241c819~ubuntu22.04.1) date 2024-01-10 18:25:37*
%MOMM*%
%LPD*%
G01*
G04 APERTURE LIST*
G04 Aperture macros list*
%AMRoundRect*
0 Rectangle with rounded corners*
0 $1 Rounding radius*
0 $2 $3 $4 $5 $6 $7 $8 $9 X,Y pos of 4 corners*
0 Add a 4 corners polygon primitive as box body*
4,1,4,$2,$3,$4,$5,$6,$7,$8,$9,$2,$3,0*
0 Add four circle primitives for the rounded corners*
1,1,$1+$1,$2,$3*
1,1,$1+$1,$4,$5*
1,1,$1+$1,$6,$7*
1,1,$1+$1,$8,$9*
0 Add four rect primitives between the rounded corners*
20,1,$1+$1,$2,$3,$4,$5,0*
20,1,$1+$1,$4,$5,$6,$7,0*
20,1,$1+$1,$6,$7,$8,$9,0*
20,1,$1+$1,$8,$9,$2,$3,0*%
G04 Aperture macros list end*
%ADD10R,0.900000X2.000000*%
%ADD11R,2.000000X0.900000*%
%ADD12R,5.000000X5.000000*%
%ADD13RoundRect,0.250000X-0.620000X-0.845000X0.620000X-0.845000X0.620000X0.845000X-0.620000X0.845000X0*%
%ADD14O,1.740000X2.190000*%
%ADD15R,0.450000X1.750000*%
%ADD16RoundRect,0.075000X0.075000X-0.650000X0.075000X0.650000X-0.075000X0.650000X-0.075000X-0.650000X0*%
%ADD17R,1.880000X1.680000*%
%ADD18RoundRect,0.200000X-0.275000X0.200000X-0.275000X-0.200000X0.275000X-0.200000X0.275000X0.200000X0*%
%ADD19RoundRect,0.200000X0.275000X-0.200000X0.275000X0.200000X-0.275000X0.200000X-0.275000X-0.200000X0*%
%ADD20RoundRect,0.250000X1.075000X-0.375000X1.075000X0.375000X-1.075000X0.375000X-1.075000X-0.375000X0*%
%ADD21RoundRect,0.250000X-0.675000X0.600000X-0.675000X-0.600000X0.675000X-0.600000X0.675000X0.600000X0*%
%ADD22O,1.850000X1.700000*%
%ADD23RoundRect,0.225000X0.225000X0.250000X-0.225000X0.250000X-0.225000X-0.250000X0.225000X-0.250000X0*%
%ADD24RoundRect,0.225000X-0.225000X-0.250000X0.225000X-0.250000X0.225000X0.250000X-0.225000X0.250000X0*%
%ADD25RoundRect,0.250000X-1.500000X-0.550000X1.500000X-0.550000X1.500000X0.550000X-1.500000X0.550000X0*%
%ADD26RoundRect,0.250000X-1.025000X0.787500X-1.025000X-0.787500X1.025000X-0.787500X1.025000X0.787500X0*%
%ADD27RoundRect,0.250000X0.650000X-0.325000X0.650000X0.325000X-0.650000X0.325000X-0.650000X-0.325000X0*%
%ADD28RoundRect,0.225000X0.250000X-0.225000X0.250000X0.225000X-0.250000X0.225000X-0.250000X-0.225000X0*%
G04 APERTURE END LIST*
D10*
%TO.C,U4*%
X113000000Y-113000000D03*
X114270000Y-113000000D03*
X115540000Y-113000000D03*
X116810000Y-113000000D03*
X118080000Y-113000000D03*
X119350000Y-113000000D03*
X120620000Y-113000000D03*
X121890000Y-113000000D03*
X123160000Y-113000000D03*
X124430000Y-113000000D03*
X125700000Y-113000000D03*
X126970000Y-113000000D03*
X128240000Y-113000000D03*
X129510000Y-113000000D03*
D11*
X130510000Y-110215000D03*
X130510000Y-108945000D03*
X130510000Y-107675000D03*
X130510000Y-106405000D03*
X130510000Y-105135000D03*
X130510000Y-103865000D03*
X130510000Y-102595000D03*
X130510000Y-101325000D03*
X130510000Y-100055000D03*
X130510000Y-98785000D03*
D10*
X129510000Y-96000000D03*
X128240000Y-96000000D03*
X126970000Y-96000000D03*
X125700000Y-96000000D03*
X124430000Y-96000000D03*
X123160000Y-96000000D03*
X121890000Y-96000000D03*
X120620000Y-96000000D03*
X119350000Y-96000000D03*
X118080000Y-96000000D03*
X116810000Y-96000000D03*
X115540000Y-96000000D03*
X114270000Y-96000000D03*
X113000000Y-96000000D03*
D12*
X120500000Y-105500000D03*
%TD*%
D13*
%TO.C,J3*%
X131300000Y-156000000D03*
D14*
X133840000Y-156000000D03*
X136380000Y-156000000D03*
X138920000Y-156000000D03*
X141460000Y-156000000D03*
X144000000Y-156000000D03*
%TD*%
D13*
%TO.C,J2*%
X101000000Y-156000000D03*
D14*
X103540000Y-156000000D03*
X106080000Y-156000000D03*
X108620000Y-156000000D03*
X111160000Y-156000000D03*
X113700000Y-156000000D03*
%TD*%
D15*
%TO.C,U3*%
X117425000Y-145600000D03*
X118075000Y-145600000D03*
X118725000Y-145600000D03*
X119375000Y-145600000D03*
X120025000Y-145600000D03*
X120675000Y-145600000D03*
X121325000Y-145600000D03*
X121975000Y-145600000D03*
X122625000Y-145600000D03*
X123275000Y-145600000D03*
X123925000Y-145600000D03*
X124575000Y-145600000D03*
X124575000Y-138400000D03*
X123925000Y-138400000D03*
X123275000Y-138400000D03*
X122625000Y-138400000D03*
X121975000Y-138400000D03*
X121325000Y-138400000D03*
X120675000Y-138400000D03*
X120025000Y-138400000D03*
X119375000Y-138400000D03*
X118725000Y-138400000D03*
X118075000Y-138400000D03*
X117425000Y-138400000D03*
%TD*%
D16*
%TO.C,U2*%
X140000000Y-142300000D03*
X140500000Y-142300000D03*
X141000000Y-142300000D03*
X141500000Y-142300000D03*
X142000000Y-142300000D03*
X142000000Y-138000000D03*
X141500000Y-138000000D03*
X141000000Y-138000000D03*
X140500000Y-138000000D03*
X140000000Y-138000000D03*
D17*
X141000000Y-140150000D03*
%TD*%
D18*
%TO.C,R6*%
X101000000Y-103000000D03*
X101000000Y-101350000D03*
%TD*%
D19*
%TO.C,R4*%
X154020000Y-134590000D03*
X154020000Y-132940000D03*
%TD*%
%TO.C,R3*%
X151510000Y-134590000D03*
X151510000Y-132940000D03*
%TD*%
%TO.C,R2*%
X149000000Y-134590000D03*
X149000000Y-132940000D03*
%TD*%
%TO.C,R1*%
X146490000Y-134590000D03*
X146490000Y-132940000D03*
%TD*%
D20*
%TO.C,L1*%
X147000000Y-143400000D03*
X147000000Y-140600000D03*
%TD*%
D21*
%TO.C,J1*%
X96000000Y-99000000D03*
D22*
X96000000Y-101500000D03*
X96000000Y-104000000D03*
X96000000Y-106500000D03*
X96000000Y-109000000D03*
X96000000Y-111500000D03*
%TD*%
D23*
%TO.C,C9*%
X112550000Y-115000000D03*
X111000000Y-115000000D03*
%TD*%
D24*
%TO.C,C8*%
X114000000Y-115000000D03*
X115550000Y-115000000D03*
%TD*%
D25*
%TO.C,C7*%
X151300000Y-149000000D03*
X156700000Y-149000000D03*
%TD*%
D26*
%TO.C,C6*%
X134000000Y-140000000D03*
X134000000Y-133775000D03*
%TD*%
D27*
%TO.C,C5*%
X152000000Y-143950000D03*
X152000000Y-141000000D03*
%TD*%
D28*
%TO.C,C4*%
X154020000Y-138550000D03*
X154020000Y-137000000D03*
%TD*%
%TO.C,C3*%
X151510000Y-138550000D03*
X151510000Y-137000000D03*
%TD*%
%TO.C,C2*%
X149000000Y-138550000D03*
X149000000Y-137000000D03*
%TD*%
%TO.C,C1*%
X146490000Y-138550000D03*
X146490000Y-137000000D03*
%TD*%
M02*
