%TF.GenerationSoftware,KiCad,Pcbnew,7.0.10-unknown-202401012134~036241c819~ubuntu22.04.1*%
%TF.CreationDate,2024-01-10T18:25:37+01:00*%
%TF.ProjectId,main_board,6d61696e-5f62-46f6-9172-642e6b696361,rev?*%
%TF.SameCoordinates,Original*%
%TF.FileFunction,Legend,Top*%
%TF.FilePolarity,Positive*%
%FSLAX46Y46*%
G04 Gerber Fmt 4.6, Leading zero omitted, Abs format (unit mm)*
G04 Created by KiCad (PCBNEW 7.0.10-unknown-202401012134~036241c819~ubuntu22.04.1) date 2024-01-10 18:25:37*
%MOMM*%
%LPD*%
G01*
G04 APERTURE LIST*
%ADD10C,0.150000*%
%ADD11C,0.120000*%
G04 APERTURE END LIST*
D10*
X110209819Y-112841904D02*
X111019342Y-112841904D01*
X111019342Y-112841904D02*
X111114580Y-112794285D01*
X111114580Y-112794285D02*
X111162200Y-112746666D01*
X111162200Y-112746666D02*
X111209819Y-112651428D01*
X111209819Y-112651428D02*
X111209819Y-112460952D01*
X111209819Y-112460952D02*
X111162200Y-112365714D01*
X111162200Y-112365714D02*
X111114580Y-112318095D01*
X111114580Y-112318095D02*
X111019342Y-112270476D01*
X111019342Y-112270476D02*
X110209819Y-112270476D01*
X110543152Y-111365714D02*
X111209819Y-111365714D01*
X110162200Y-111603809D02*
X110876485Y-111841904D01*
X110876485Y-111841904D02*
X110876485Y-111222857D01*
X137316666Y-151334819D02*
X137316666Y-152049104D01*
X137316666Y-152049104D02*
X137269047Y-152191961D01*
X137269047Y-152191961D02*
X137173809Y-152287200D01*
X137173809Y-152287200D02*
X137030952Y-152334819D01*
X137030952Y-152334819D02*
X136935714Y-152334819D01*
X137697619Y-151334819D02*
X138316666Y-151334819D01*
X138316666Y-151334819D02*
X137983333Y-151715771D01*
X137983333Y-151715771D02*
X138126190Y-151715771D01*
X138126190Y-151715771D02*
X138221428Y-151763390D01*
X138221428Y-151763390D02*
X138269047Y-151811009D01*
X138269047Y-151811009D02*
X138316666Y-151906247D01*
X138316666Y-151906247D02*
X138316666Y-152144342D01*
X138316666Y-152144342D02*
X138269047Y-152239580D01*
X138269047Y-152239580D02*
X138221428Y-152287200D01*
X138221428Y-152287200D02*
X138126190Y-152334819D01*
X138126190Y-152334819D02*
X137840476Y-152334819D01*
X137840476Y-152334819D02*
X137745238Y-152287200D01*
X137745238Y-152287200D02*
X137697619Y-152239580D01*
X107016666Y-151334819D02*
X107016666Y-152049104D01*
X107016666Y-152049104D02*
X106969047Y-152191961D01*
X106969047Y-152191961D02*
X106873809Y-152287200D01*
X106873809Y-152287200D02*
X106730952Y-152334819D01*
X106730952Y-152334819D02*
X106635714Y-152334819D01*
X107445238Y-151430057D02*
X107492857Y-151382438D01*
X107492857Y-151382438D02*
X107588095Y-151334819D01*
X107588095Y-151334819D02*
X107826190Y-151334819D01*
X107826190Y-151334819D02*
X107921428Y-151382438D01*
X107921428Y-151382438D02*
X107969047Y-151430057D01*
X107969047Y-151430057D02*
X108016666Y-151525295D01*
X108016666Y-151525295D02*
X108016666Y-151620533D01*
X108016666Y-151620533D02*
X107969047Y-151763390D01*
X107969047Y-151763390D02*
X107397619Y-152334819D01*
X107397619Y-152334819D02*
X108016666Y-152334819D01*
X115204819Y-142761904D02*
X116014342Y-142761904D01*
X116014342Y-142761904D02*
X116109580Y-142714285D01*
X116109580Y-142714285D02*
X116157200Y-142666666D01*
X116157200Y-142666666D02*
X116204819Y-142571428D01*
X116204819Y-142571428D02*
X116204819Y-142380952D01*
X116204819Y-142380952D02*
X116157200Y-142285714D01*
X116157200Y-142285714D02*
X116109580Y-142238095D01*
X116109580Y-142238095D02*
X116014342Y-142190476D01*
X116014342Y-142190476D02*
X115204819Y-142190476D01*
X115204819Y-141809523D02*
X115204819Y-141190476D01*
X115204819Y-141190476D02*
X115585771Y-141523809D01*
X115585771Y-141523809D02*
X115585771Y-141380952D01*
X115585771Y-141380952D02*
X115633390Y-141285714D01*
X115633390Y-141285714D02*
X115681009Y-141238095D01*
X115681009Y-141238095D02*
X115776247Y-141190476D01*
X115776247Y-141190476D02*
X116014342Y-141190476D01*
X116014342Y-141190476D02*
X116109580Y-141238095D01*
X116109580Y-141238095D02*
X116157200Y-141285714D01*
X116157200Y-141285714D02*
X116204819Y-141380952D01*
X116204819Y-141380952D02*
X116204819Y-141666666D01*
X116204819Y-141666666D02*
X116157200Y-141761904D01*
X116157200Y-141761904D02*
X116109580Y-141809523D01*
X102884819Y-102341666D02*
X102408628Y-102674999D01*
X102884819Y-102913094D02*
X101884819Y-102913094D01*
X101884819Y-102913094D02*
X101884819Y-102532142D01*
X101884819Y-102532142D02*
X101932438Y-102436904D01*
X101932438Y-102436904D02*
X101980057Y-102389285D01*
X101980057Y-102389285D02*
X102075295Y-102341666D01*
X102075295Y-102341666D02*
X102218152Y-102341666D01*
X102218152Y-102341666D02*
X102313390Y-102389285D01*
X102313390Y-102389285D02*
X102361009Y-102436904D01*
X102361009Y-102436904D02*
X102408628Y-102532142D01*
X102408628Y-102532142D02*
X102408628Y-102913094D01*
X101884819Y-101484523D02*
X101884819Y-101674999D01*
X101884819Y-101674999D02*
X101932438Y-101770237D01*
X101932438Y-101770237D02*
X101980057Y-101817856D01*
X101980057Y-101817856D02*
X102122914Y-101913094D01*
X102122914Y-101913094D02*
X102313390Y-101960713D01*
X102313390Y-101960713D02*
X102694342Y-101960713D01*
X102694342Y-101960713D02*
X102789580Y-101913094D01*
X102789580Y-101913094D02*
X102837200Y-101865475D01*
X102837200Y-101865475D02*
X102884819Y-101770237D01*
X102884819Y-101770237D02*
X102884819Y-101579761D01*
X102884819Y-101579761D02*
X102837200Y-101484523D01*
X102837200Y-101484523D02*
X102789580Y-101436904D01*
X102789580Y-101436904D02*
X102694342Y-101389285D01*
X102694342Y-101389285D02*
X102456247Y-101389285D01*
X102456247Y-101389285D02*
X102361009Y-101436904D01*
X102361009Y-101436904D02*
X102313390Y-101484523D01*
X102313390Y-101484523D02*
X102265771Y-101579761D01*
X102265771Y-101579761D02*
X102265771Y-101770237D01*
X102265771Y-101770237D02*
X102313390Y-101865475D01*
X102313390Y-101865475D02*
X102361009Y-101913094D01*
X102361009Y-101913094D02*
X102456247Y-101960713D01*
X99754819Y-105583333D02*
X100469104Y-105583333D01*
X100469104Y-105583333D02*
X100611961Y-105630952D01*
X100611961Y-105630952D02*
X100707200Y-105726190D01*
X100707200Y-105726190D02*
X100754819Y-105869047D01*
X100754819Y-105869047D02*
X100754819Y-105964285D01*
X100754819Y-104583333D02*
X100754819Y-105154761D01*
X100754819Y-104869047D02*
X99754819Y-104869047D01*
X99754819Y-104869047D02*
X99897676Y-104964285D01*
X99897676Y-104964285D02*
X99992914Y-105059523D01*
X99992914Y-105059523D02*
X100040533Y-105154761D01*
X111608333Y-117359580D02*
X111560714Y-117407200D01*
X111560714Y-117407200D02*
X111417857Y-117454819D01*
X111417857Y-117454819D02*
X111322619Y-117454819D01*
X111322619Y-117454819D02*
X111179762Y-117407200D01*
X111179762Y-117407200D02*
X111084524Y-117311961D01*
X111084524Y-117311961D02*
X111036905Y-117216723D01*
X111036905Y-117216723D02*
X110989286Y-117026247D01*
X110989286Y-117026247D02*
X110989286Y-116883390D01*
X110989286Y-116883390D02*
X111036905Y-116692914D01*
X111036905Y-116692914D02*
X111084524Y-116597676D01*
X111084524Y-116597676D02*
X111179762Y-116502438D01*
X111179762Y-116502438D02*
X111322619Y-116454819D01*
X111322619Y-116454819D02*
X111417857Y-116454819D01*
X111417857Y-116454819D02*
X111560714Y-116502438D01*
X111560714Y-116502438D02*
X111608333Y-116550057D01*
X112084524Y-117454819D02*
X112275000Y-117454819D01*
X112275000Y-117454819D02*
X112370238Y-117407200D01*
X112370238Y-117407200D02*
X112417857Y-117359580D01*
X112417857Y-117359580D02*
X112513095Y-117216723D01*
X112513095Y-117216723D02*
X112560714Y-117026247D01*
X112560714Y-117026247D02*
X112560714Y-116645295D01*
X112560714Y-116645295D02*
X112513095Y-116550057D01*
X112513095Y-116550057D02*
X112465476Y-116502438D01*
X112465476Y-116502438D02*
X112370238Y-116454819D01*
X112370238Y-116454819D02*
X112179762Y-116454819D01*
X112179762Y-116454819D02*
X112084524Y-116502438D01*
X112084524Y-116502438D02*
X112036905Y-116550057D01*
X112036905Y-116550057D02*
X111989286Y-116645295D01*
X111989286Y-116645295D02*
X111989286Y-116883390D01*
X111989286Y-116883390D02*
X112036905Y-116978628D01*
X112036905Y-116978628D02*
X112084524Y-117026247D01*
X112084524Y-117026247D02*
X112179762Y-117073866D01*
X112179762Y-117073866D02*
X112370238Y-117073866D01*
X112370238Y-117073866D02*
X112465476Y-117026247D01*
X112465476Y-117026247D02*
X112513095Y-116978628D01*
X112513095Y-116978628D02*
X112560714Y-116883390D01*
X114608333Y-117359580D02*
X114560714Y-117407200D01*
X114560714Y-117407200D02*
X114417857Y-117454819D01*
X114417857Y-117454819D02*
X114322619Y-117454819D01*
X114322619Y-117454819D02*
X114179762Y-117407200D01*
X114179762Y-117407200D02*
X114084524Y-117311961D01*
X114084524Y-117311961D02*
X114036905Y-117216723D01*
X114036905Y-117216723D02*
X113989286Y-117026247D01*
X113989286Y-117026247D02*
X113989286Y-116883390D01*
X113989286Y-116883390D02*
X114036905Y-116692914D01*
X114036905Y-116692914D02*
X114084524Y-116597676D01*
X114084524Y-116597676D02*
X114179762Y-116502438D01*
X114179762Y-116502438D02*
X114322619Y-116454819D01*
X114322619Y-116454819D02*
X114417857Y-116454819D01*
X114417857Y-116454819D02*
X114560714Y-116502438D01*
X114560714Y-116502438D02*
X114608333Y-116550057D01*
X115179762Y-116883390D02*
X115084524Y-116835771D01*
X115084524Y-116835771D02*
X115036905Y-116788152D01*
X115036905Y-116788152D02*
X114989286Y-116692914D01*
X114989286Y-116692914D02*
X114989286Y-116645295D01*
X114989286Y-116645295D02*
X115036905Y-116550057D01*
X115036905Y-116550057D02*
X115084524Y-116502438D01*
X115084524Y-116502438D02*
X115179762Y-116454819D01*
X115179762Y-116454819D02*
X115370238Y-116454819D01*
X115370238Y-116454819D02*
X115465476Y-116502438D01*
X115465476Y-116502438D02*
X115513095Y-116550057D01*
X115513095Y-116550057D02*
X115560714Y-116645295D01*
X115560714Y-116645295D02*
X115560714Y-116692914D01*
X115560714Y-116692914D02*
X115513095Y-116788152D01*
X115513095Y-116788152D02*
X115465476Y-116835771D01*
X115465476Y-116835771D02*
X115370238Y-116883390D01*
X115370238Y-116883390D02*
X115179762Y-116883390D01*
X115179762Y-116883390D02*
X115084524Y-116931009D01*
X115084524Y-116931009D02*
X115036905Y-116978628D01*
X115036905Y-116978628D02*
X114989286Y-117073866D01*
X114989286Y-117073866D02*
X114989286Y-117264342D01*
X114989286Y-117264342D02*
X115036905Y-117359580D01*
X115036905Y-117359580D02*
X115084524Y-117407200D01*
X115084524Y-117407200D02*
X115179762Y-117454819D01*
X115179762Y-117454819D02*
X115370238Y-117454819D01*
X115370238Y-117454819D02*
X115465476Y-117407200D01*
X115465476Y-117407200D02*
X115513095Y-117359580D01*
X115513095Y-117359580D02*
X115560714Y-117264342D01*
X115560714Y-117264342D02*
X115560714Y-117073866D01*
X115560714Y-117073866D02*
X115513095Y-116978628D01*
X115513095Y-116978628D02*
X115465476Y-116931009D01*
X115465476Y-116931009D02*
X115370238Y-116883390D01*
D11*
%TO.C,U4*%
X111535000Y-95380000D02*
X111955000Y-95380000D01*
X111535000Y-113620000D02*
X111955000Y-113620000D01*
X130975000Y-95380000D02*
X130975000Y-96380000D01*
X130355000Y-95380000D02*
X130975000Y-95380000D01*
X111955000Y-113620000D02*
X111955000Y-114000000D01*
X111535000Y-113620000D02*
X111535000Y-95380000D01*
X130975000Y-113620000D02*
X130975000Y-112620000D01*
X130355000Y-113620000D02*
X130975000Y-113620000D01*
%TO.C,J3*%
X135580000Y-153570000D02*
X137180000Y-153570000D01*
X137180000Y-153570000D02*
X137180000Y-152970000D01*
X131300000Y-158990000D02*
X131300000Y-157990000D01*
X129920000Y-158990000D02*
X145380000Y-158990000D01*
X143750000Y-157460000D02*
X144000000Y-157990000D01*
X133040000Y-153570000D02*
X134640000Y-153570000D01*
X131300000Y-157990000D02*
X144000000Y-157990000D01*
X129630000Y-154000000D02*
X129630000Y-158000000D01*
X140660000Y-153570000D02*
X142260000Y-153570000D01*
X142260000Y-153570000D02*
X142260000Y-152970000D01*
X135580000Y-152970000D02*
X135580000Y-153570000D01*
X144800000Y-153570000D02*
X144800000Y-152970000D01*
X145380000Y-158990000D02*
X145380000Y-152970000D01*
X140660000Y-152970000D02*
X140660000Y-153570000D01*
X139720000Y-153570000D02*
X139720000Y-152970000D01*
X131550000Y-158990000D02*
X131550000Y-157990000D01*
X138120000Y-153570000D02*
X139720000Y-153570000D01*
X129920000Y-152970000D02*
X129920000Y-158990000D01*
X130500000Y-153570000D02*
X132100000Y-153570000D01*
X143200000Y-152970000D02*
X143200000Y-153570000D01*
X132100000Y-153570000D02*
X132100000Y-152970000D01*
X131300000Y-157990000D02*
X131550000Y-157460000D01*
X138120000Y-152970000D02*
X138120000Y-153570000D01*
X131550000Y-157460000D02*
X143750000Y-157460000D01*
X134640000Y-153570000D02*
X134640000Y-152970000D01*
X133040000Y-152970000D02*
X133040000Y-153570000D01*
X143750000Y-158990000D02*
X143750000Y-157990000D01*
X144000000Y-157990000D02*
X144000000Y-158990000D01*
X143200000Y-153570000D02*
X144800000Y-153570000D01*
X145380000Y-152970000D02*
X129920000Y-152970000D01*
X130500000Y-152970000D02*
X130500000Y-153570000D01*
%TO.C,J2*%
X105280000Y-153570000D02*
X106880000Y-153570000D01*
X106880000Y-153570000D02*
X106880000Y-152970000D01*
X101000000Y-158990000D02*
X101000000Y-157990000D01*
X99620000Y-158990000D02*
X115080000Y-158990000D01*
X113450000Y-157460000D02*
X113700000Y-157990000D01*
X102740000Y-153570000D02*
X104340000Y-153570000D01*
X101000000Y-157990000D02*
X113700000Y-157990000D01*
X99330000Y-154000000D02*
X99330000Y-158000000D01*
X110360000Y-153570000D02*
X111960000Y-153570000D01*
X111960000Y-153570000D02*
X111960000Y-152970000D01*
X105280000Y-152970000D02*
X105280000Y-153570000D01*
X114500000Y-153570000D02*
X114500000Y-152970000D01*
X115080000Y-158990000D02*
X115080000Y-152970000D01*
X110360000Y-152970000D02*
X110360000Y-153570000D01*
X109420000Y-153570000D02*
X109420000Y-152970000D01*
X101250000Y-158990000D02*
X101250000Y-157990000D01*
X107820000Y-153570000D02*
X109420000Y-153570000D01*
X99620000Y-152970000D02*
X99620000Y-158990000D01*
X100200000Y-153570000D02*
X101800000Y-153570000D01*
X112900000Y-152970000D02*
X112900000Y-153570000D01*
X101800000Y-153570000D02*
X101800000Y-152970000D01*
X101000000Y-157990000D02*
X101250000Y-157460000D01*
X107820000Y-152970000D02*
X107820000Y-153570000D01*
X101250000Y-157460000D02*
X113450000Y-157460000D01*
X104340000Y-153570000D02*
X104340000Y-152970000D01*
X102740000Y-152970000D02*
X102740000Y-153570000D01*
X113450000Y-158990000D02*
X113450000Y-157990000D01*
X113700000Y-157990000D02*
X113700000Y-158990000D01*
X112900000Y-153570000D02*
X114500000Y-153570000D01*
X115080000Y-152970000D02*
X99620000Y-152970000D01*
X100200000Y-152970000D02*
X100200000Y-153570000D01*
D10*
%TO.C,U3*%
X125325000Y-139125000D02*
X125025000Y-139125000D01*
X125325000Y-144875000D02*
X125325000Y-139125000D01*
X116900000Y-144875000D02*
X116900000Y-146475000D01*
X116675000Y-144875000D02*
X116675000Y-139125000D01*
X116675000Y-139125000D02*
X116975000Y-139125000D01*
X125325000Y-144875000D02*
X125025000Y-144875000D01*
X116675000Y-144875000D02*
X116900000Y-144875000D01*
D11*
%TO.C,U2*%
X139390000Y-140150000D02*
X139390000Y-143025000D01*
X142610000Y-140150000D02*
X142610000Y-138650000D01*
X142610000Y-140150000D02*
X142610000Y-141650000D01*
X139390000Y-140150000D02*
X139390000Y-138650000D01*
%TO.C,R6*%
X101522500Y-101937742D02*
X101522500Y-102412258D01*
X100477500Y-101937742D02*
X100477500Y-102412258D01*
%TO.C,R4*%
X154542500Y-134002258D02*
X154542500Y-133527742D01*
X153497500Y-134002258D02*
X153497500Y-133527742D01*
%TO.C,R3*%
X152032500Y-134002258D02*
X152032500Y-133527742D01*
X150987500Y-134002258D02*
X150987500Y-133527742D01*
%TO.C,R2*%
X149522500Y-134002258D02*
X149522500Y-133527742D01*
X148477500Y-134002258D02*
X148477500Y-133527742D01*
%TO.C,R1*%
X147012500Y-134002258D02*
X147012500Y-133527742D01*
X145967500Y-134002258D02*
X145967500Y-133527742D01*
%TO.C,L1*%
X148360000Y-142602064D02*
X148360000Y-141397936D01*
X145640000Y-142602064D02*
X145640000Y-141397936D01*
%TO.C,J1*%
X99210000Y-114060000D02*
X99210000Y-96440000D01*
X94090000Y-96440000D02*
X94090000Y-113060000D01*
X94090000Y-113060000D02*
X95090000Y-114060000D01*
X99210000Y-96440000D02*
X94090000Y-96440000D01*
X93790000Y-96140000D02*
X93790000Y-98550000D01*
X95090000Y-114060000D02*
X99210000Y-114060000D01*
X96200000Y-96140000D02*
X93790000Y-96140000D01*
%TO.C,C9*%
X111915580Y-114490000D02*
X111634420Y-114490000D01*
X111915580Y-115510000D02*
X111634420Y-115510000D01*
%TO.C,C8*%
X114634420Y-115510000D02*
X114915580Y-115510000D01*
X114634420Y-114490000D02*
X114915580Y-114490000D01*
%TO.C,C7*%
X150590000Y-151345563D02*
X151654437Y-152410000D01*
X149562500Y-147152500D02*
X150350000Y-147152500D01*
X157410000Y-145590000D02*
X157410000Y-147940000D01*
X149956250Y-146758750D02*
X149956250Y-147546250D01*
X150590000Y-146654437D02*
X150590000Y-147940000D01*
X151654437Y-145590000D02*
X157410000Y-145590000D01*
X157410000Y-152410000D02*
X157410000Y-150060000D01*
X151654437Y-152410000D02*
X157410000Y-152410000D01*
X150590000Y-146654437D02*
X151654437Y-145590000D01*
X150590000Y-151345563D02*
X150590000Y-150060000D01*
%TO.C,C6*%
X131740000Y-132477500D02*
X131740000Y-140537500D01*
X136260000Y-132477500D02*
X131740000Y-132477500D01*
X136260000Y-140537500D02*
X136260000Y-132477500D01*
%TO.C,C5*%
X151090000Y-143186252D02*
X151090000Y-141763748D01*
X152910000Y-143186252D02*
X152910000Y-141763748D01*
%TO.C,C4*%
X154530000Y-137915580D02*
X154530000Y-137634420D01*
X153510000Y-137915580D02*
X153510000Y-137634420D01*
%TO.C,C3*%
X152020000Y-137915580D02*
X152020000Y-137634420D01*
X151000000Y-137915580D02*
X151000000Y-137634420D01*
%TO.C,C2*%
X149510000Y-137915580D02*
X149510000Y-137634420D01*
X148490000Y-137915580D02*
X148490000Y-137634420D01*
%TO.C,C1*%
X147000000Y-137915580D02*
X147000000Y-137634420D01*
X145980000Y-137915580D02*
X145980000Y-137634420D01*
%TD*%
M02*
