M48
; DRILL file {KiCad 7.0.10-unknown-202401012134~036241c819~ubuntu22.04.1} date Št 11. január 2024, 20:57:49
; FORMAT={-:-/ absolute / inch / decimal}
; #@! TF.CreationDate,2024-01-11T20:57:49+01:00
; #@! TF.GenerationSoftware,Kicad,Pcbnew,7.0.10-unknown-202401012134~036241c819~ubuntu22.04.1
; #@! TF.FileFunction,Plated,1,2,PTH
FMAT,2
INCH
; #@! TA.AperFunction,Plated,PTH,ViaDrill
T1C0.0157
; #@! TA.AperFunction,Plated,PTH,ComponentDrill
T2C0.0335
; #@! TA.AperFunction,Plated,PTH,ComponentDrill
T3C0.0394
; #@! TA.AperFunction,Plated,PTH,ComponentDrill
T4C0.0469
; #@! TA.AperFunction,Plated,PTH,ComponentDrill
T5C0.1063
; #@! TA.AperFunction,Plated,PTH,ComponentDrill
T6C0.1772
%
G90
G05
T1
X8.0512Y-3.1201
X8.0512Y-3.1988
X8.4449Y-5.7579
X8.4646Y-3.1102
X8.4646Y-3.2087
X8.5236Y-2.9528
X8.5827Y-2.9823
X8.5925Y-3.2382
X8.6319Y-2.9528
X8.6909Y-2.7953
X8.7106Y-2.9724
X8.7205Y-5.7579
X8.7402Y-2.7854
X8.75Y-3.0807
X8.7598Y-2.9921
X8.7598Y-3.3268
X8.7697Y-3.2283
X8.7795Y-2.9528
X8.878Y-3.1988
X9.0059Y-3.2185
X9.0354Y-3.3268
X9.0945Y-5.8661
X9.0945Y-5.9941
X9.2421Y-5.9843
X9.252Y-5.8563
X9.3602Y-5.8465
X9.3701Y-5.9744
X9.4783Y-5.9744
X9.4882Y-5.8465
X9.6161Y-5.6299
X9.6161Y-5.7874
X9.7047Y-6.0433
X9.7638Y-5.748
X9.7638Y-5.8071
X9.7638Y-6.0433
X9.9409Y-5.7185
X9.9508Y-5.8366
T2
X4.1043Y-3.5236
X4.1043Y-3.622
X4.1043Y-3.7205
X4.1043Y-3.8189
X4.1043Y-3.9173
X4.1043Y-4.0157
T3
X3.4827Y-3.0866
X3.5327Y-3.0
X3.5827Y-2.9134
X3.6327Y-2.8268
X3.6827Y-2.7402
X3.7327Y-2.6536
X3.881Y-2.475
X3.9676Y-2.425
X4.0542Y-2.375
X4.1408Y-2.325
X4.2274Y-2.275
X4.314Y-2.225
X4.5787Y-2.1457
X4.6787Y-2.1457
X4.7787Y-2.1457
X4.8787Y-2.1457
X4.9787Y-2.1457
X5.0787Y-2.1457
X5.3032Y-2.2213
X5.3898Y-2.2713
X5.4764Y-2.3213
X5.563Y-2.3713
X5.6496Y-2.4213
X5.7362Y-2.4713
X5.8736Y-2.6142
X5.9236Y-2.7008
X5.9736Y-2.7874
X6.0236Y-2.874
X6.0736Y-2.9606
X6.1236Y-3.0472
T4
X7.8791Y-2.9528
X7.9791Y-2.9528
X8.0791Y-2.9528
X8.1791Y-2.9528
X8.2791Y-2.9528
X8.3791Y-2.9528
X8.9488Y-2.9528
X9.0488Y-2.9528
X9.1488Y-2.9528
X9.2488Y-2.9528
X9.3488Y-2.9528
X9.4488Y-2.9528
T5
X3.5039Y-3.3858
X3.5039Y-6.1417
X6.1417Y-3.3858
X6.1417Y-6.1417
X8.0315Y-3.5531
X8.0315Y-3.7992
X8.0315Y-4.0453
X8.0315Y-4.2913
T6
X7.7764Y-5.5067
X8.0598Y-5.5067
M30
