%TF.GenerationSoftware,KiCad,Pcbnew,7.0.10-unknown-202401012134~036241c819~ubuntu22.04.1*%
%TF.CreationDate,2024-01-11T20:57:47+01:00*%
%TF.ProjectId,main_board,6d61696e-5f62-46f6-9172-642e6b696361,rev?*%
%TF.SameCoordinates,Original*%
%TF.FileFunction,Legend,Top*%
%TF.FilePolarity,Positive*%
%FSLAX46Y46*%
G04 Gerber Fmt 4.6, Leading zero omitted, Abs format (unit mm)*
G04 Created by KiCad (PCBNEW 7.0.10-unknown-202401012134~036241c819~ubuntu22.04.1) date 2024-01-11 20:57:47*
%MOMM*%
%LPD*%
G01*
G04 APERTURE LIST*
%ADD10C,0.150000*%
%ADD11C,0.120000*%
G04 APERTURE END LIST*
D10*
X205678095Y-144274819D02*
X205678095Y-145084342D01*
X205678095Y-145084342D02*
X205725714Y-145179580D01*
X205725714Y-145179580D02*
X205773333Y-145227200D01*
X205773333Y-145227200D02*
X205868571Y-145274819D01*
X205868571Y-145274819D02*
X206059047Y-145274819D01*
X206059047Y-145274819D02*
X206154285Y-145227200D01*
X206154285Y-145227200D02*
X206201904Y-145179580D01*
X206201904Y-145179580D02*
X206249523Y-145084342D01*
X206249523Y-145084342D02*
X206249523Y-144274819D01*
X206678095Y-144370057D02*
X206725714Y-144322438D01*
X206725714Y-144322438D02*
X206820952Y-144274819D01*
X206820952Y-144274819D02*
X207059047Y-144274819D01*
X207059047Y-144274819D02*
X207154285Y-144322438D01*
X207154285Y-144322438D02*
X207201904Y-144370057D01*
X207201904Y-144370057D02*
X207249523Y-144465295D01*
X207249523Y-144465295D02*
X207249523Y-144560533D01*
X207249523Y-144560533D02*
X207201904Y-144703390D01*
X207201904Y-144703390D02*
X206630476Y-145274819D01*
X206630476Y-145274819D02*
X207249523Y-145274819D01*
X190173333Y-152594819D02*
X189840000Y-152118628D01*
X189601905Y-152594819D02*
X189601905Y-151594819D01*
X189601905Y-151594819D02*
X189982857Y-151594819D01*
X189982857Y-151594819D02*
X190078095Y-151642438D01*
X190078095Y-151642438D02*
X190125714Y-151690057D01*
X190125714Y-151690057D02*
X190173333Y-151785295D01*
X190173333Y-151785295D02*
X190173333Y-151928152D01*
X190173333Y-151928152D02*
X190125714Y-152023390D01*
X190125714Y-152023390D02*
X190078095Y-152071009D01*
X190078095Y-152071009D02*
X189982857Y-152118628D01*
X189982857Y-152118628D02*
X189601905Y-152118628D01*
X191030476Y-151928152D02*
X191030476Y-152594819D01*
X190792381Y-151547200D02*
X190554286Y-152261485D01*
X190554286Y-152261485D02*
X191173333Y-152261485D01*
X190173333Y-150084819D02*
X189840000Y-149608628D01*
X189601905Y-150084819D02*
X189601905Y-149084819D01*
X189601905Y-149084819D02*
X189982857Y-149084819D01*
X189982857Y-149084819D02*
X190078095Y-149132438D01*
X190078095Y-149132438D02*
X190125714Y-149180057D01*
X190125714Y-149180057D02*
X190173333Y-149275295D01*
X190173333Y-149275295D02*
X190173333Y-149418152D01*
X190173333Y-149418152D02*
X190125714Y-149513390D01*
X190125714Y-149513390D02*
X190078095Y-149561009D01*
X190078095Y-149561009D02*
X189982857Y-149608628D01*
X189982857Y-149608628D02*
X189601905Y-149608628D01*
X190506667Y-149084819D02*
X191125714Y-149084819D01*
X191125714Y-149084819D02*
X190792381Y-149465771D01*
X190792381Y-149465771D02*
X190935238Y-149465771D01*
X190935238Y-149465771D02*
X191030476Y-149513390D01*
X191030476Y-149513390D02*
X191078095Y-149561009D01*
X191078095Y-149561009D02*
X191125714Y-149656247D01*
X191125714Y-149656247D02*
X191125714Y-149894342D01*
X191125714Y-149894342D02*
X191078095Y-149989580D01*
X191078095Y-149989580D02*
X191030476Y-150037200D01*
X191030476Y-150037200D02*
X190935238Y-150084819D01*
X190935238Y-150084819D02*
X190649524Y-150084819D01*
X190649524Y-150084819D02*
X190554286Y-150037200D01*
X190554286Y-150037200D02*
X190506667Y-149989580D01*
X190173333Y-147574819D02*
X189840000Y-147098628D01*
X189601905Y-147574819D02*
X189601905Y-146574819D01*
X189601905Y-146574819D02*
X189982857Y-146574819D01*
X189982857Y-146574819D02*
X190078095Y-146622438D01*
X190078095Y-146622438D02*
X190125714Y-146670057D01*
X190125714Y-146670057D02*
X190173333Y-146765295D01*
X190173333Y-146765295D02*
X190173333Y-146908152D01*
X190173333Y-146908152D02*
X190125714Y-147003390D01*
X190125714Y-147003390D02*
X190078095Y-147051009D01*
X190078095Y-147051009D02*
X189982857Y-147098628D01*
X189982857Y-147098628D02*
X189601905Y-147098628D01*
X190554286Y-146670057D02*
X190601905Y-146622438D01*
X190601905Y-146622438D02*
X190697143Y-146574819D01*
X190697143Y-146574819D02*
X190935238Y-146574819D01*
X190935238Y-146574819D02*
X191030476Y-146622438D01*
X191030476Y-146622438D02*
X191078095Y-146670057D01*
X191078095Y-146670057D02*
X191125714Y-146765295D01*
X191125714Y-146765295D02*
X191125714Y-146860533D01*
X191125714Y-146860533D02*
X191078095Y-147003390D01*
X191078095Y-147003390D02*
X190506667Y-147574819D01*
X190506667Y-147574819D02*
X191125714Y-147574819D01*
X190173333Y-145064819D02*
X189840000Y-144588628D01*
X189601905Y-145064819D02*
X189601905Y-144064819D01*
X189601905Y-144064819D02*
X189982857Y-144064819D01*
X189982857Y-144064819D02*
X190078095Y-144112438D01*
X190078095Y-144112438D02*
X190125714Y-144160057D01*
X190125714Y-144160057D02*
X190173333Y-144255295D01*
X190173333Y-144255295D02*
X190173333Y-144398152D01*
X190173333Y-144398152D02*
X190125714Y-144493390D01*
X190125714Y-144493390D02*
X190078095Y-144541009D01*
X190078095Y-144541009D02*
X189982857Y-144588628D01*
X189982857Y-144588628D02*
X189601905Y-144588628D01*
X191125714Y-145064819D02*
X190554286Y-145064819D01*
X190840000Y-145064819D02*
X190840000Y-144064819D01*
X190840000Y-144064819D02*
X190744762Y-144207676D01*
X190744762Y-144207676D02*
X190649524Y-144302914D01*
X190649524Y-144302914D02*
X190554286Y-144350533D01*
X205433333Y-153174819D02*
X204957143Y-153174819D01*
X204957143Y-153174819D02*
X204957143Y-152174819D01*
X206290476Y-153174819D02*
X205719048Y-153174819D01*
X206004762Y-153174819D02*
X206004762Y-152174819D01*
X206004762Y-152174819D02*
X205909524Y-152317676D01*
X205909524Y-152317676D02*
X205814286Y-152412914D01*
X205814286Y-152412914D02*
X205719048Y-152460533D01*
X200786666Y-134024819D02*
X200786666Y-134739104D01*
X200786666Y-134739104D02*
X200739047Y-134881961D01*
X200739047Y-134881961D02*
X200643809Y-134977200D01*
X200643809Y-134977200D02*
X200500952Y-135024819D01*
X200500952Y-135024819D02*
X200405714Y-135024819D01*
X201310476Y-135024819D02*
X201500952Y-135024819D01*
X201500952Y-135024819D02*
X201596190Y-134977200D01*
X201596190Y-134977200D02*
X201643809Y-134929580D01*
X201643809Y-134929580D02*
X201739047Y-134786723D01*
X201739047Y-134786723D02*
X201786666Y-134596247D01*
X201786666Y-134596247D02*
X201786666Y-134215295D01*
X201786666Y-134215295D02*
X201739047Y-134120057D01*
X201739047Y-134120057D02*
X201691428Y-134072438D01*
X201691428Y-134072438D02*
X201596190Y-134024819D01*
X201596190Y-134024819D02*
X201405714Y-134024819D01*
X201405714Y-134024819D02*
X201310476Y-134072438D01*
X201310476Y-134072438D02*
X201262857Y-134120057D01*
X201262857Y-134120057D02*
X201215238Y-134215295D01*
X201215238Y-134215295D02*
X201215238Y-134453390D01*
X201215238Y-134453390D02*
X201262857Y-134548628D01*
X201262857Y-134548628D02*
X201310476Y-134596247D01*
X201310476Y-134596247D02*
X201405714Y-134643866D01*
X201405714Y-134643866D02*
X201596190Y-134643866D01*
X201596190Y-134643866D02*
X201691428Y-134596247D01*
X201691428Y-134596247D02*
X201739047Y-134548628D01*
X201739047Y-134548628D02*
X201786666Y-134453390D01*
X197403333Y-145079580D02*
X197355714Y-145127200D01*
X197355714Y-145127200D02*
X197212857Y-145174819D01*
X197212857Y-145174819D02*
X197117619Y-145174819D01*
X197117619Y-145174819D02*
X196974762Y-145127200D01*
X196974762Y-145127200D02*
X196879524Y-145031961D01*
X196879524Y-145031961D02*
X196831905Y-144936723D01*
X196831905Y-144936723D02*
X196784286Y-144746247D01*
X196784286Y-144746247D02*
X196784286Y-144603390D01*
X196784286Y-144603390D02*
X196831905Y-144412914D01*
X196831905Y-144412914D02*
X196879524Y-144317676D01*
X196879524Y-144317676D02*
X196974762Y-144222438D01*
X196974762Y-144222438D02*
X197117619Y-144174819D01*
X197117619Y-144174819D02*
X197212857Y-144174819D01*
X197212857Y-144174819D02*
X197355714Y-144222438D01*
X197355714Y-144222438D02*
X197403333Y-144270057D01*
X197736667Y-144174819D02*
X198403333Y-144174819D01*
X198403333Y-144174819D02*
X197974762Y-145174819D01*
X197148333Y-153329580D02*
X197100714Y-153377200D01*
X197100714Y-153377200D02*
X196957857Y-153424819D01*
X196957857Y-153424819D02*
X196862619Y-153424819D01*
X196862619Y-153424819D02*
X196719762Y-153377200D01*
X196719762Y-153377200D02*
X196624524Y-153281961D01*
X196624524Y-153281961D02*
X196576905Y-153186723D01*
X196576905Y-153186723D02*
X196529286Y-152996247D01*
X196529286Y-152996247D02*
X196529286Y-152853390D01*
X196529286Y-152853390D02*
X196576905Y-152662914D01*
X196576905Y-152662914D02*
X196624524Y-152567676D01*
X196624524Y-152567676D02*
X196719762Y-152472438D01*
X196719762Y-152472438D02*
X196862619Y-152424819D01*
X196862619Y-152424819D02*
X196957857Y-152424819D01*
X196957857Y-152424819D02*
X197100714Y-152472438D01*
X197100714Y-152472438D02*
X197148333Y-152520057D01*
X198005476Y-152424819D02*
X197815000Y-152424819D01*
X197815000Y-152424819D02*
X197719762Y-152472438D01*
X197719762Y-152472438D02*
X197672143Y-152520057D01*
X197672143Y-152520057D02*
X197576905Y-152662914D01*
X197576905Y-152662914D02*
X197529286Y-152853390D01*
X197529286Y-152853390D02*
X197529286Y-153234342D01*
X197529286Y-153234342D02*
X197576905Y-153329580D01*
X197576905Y-153329580D02*
X197624524Y-153377200D01*
X197624524Y-153377200D02*
X197719762Y-153424819D01*
X197719762Y-153424819D02*
X197910238Y-153424819D01*
X197910238Y-153424819D02*
X198005476Y-153377200D01*
X198005476Y-153377200D02*
X198053095Y-153329580D01*
X198053095Y-153329580D02*
X198100714Y-153234342D01*
X198100714Y-153234342D02*
X198100714Y-152996247D01*
X198100714Y-152996247D02*
X198053095Y-152901009D01*
X198053095Y-152901009D02*
X198005476Y-152853390D01*
X198005476Y-152853390D02*
X197910238Y-152805771D01*
X197910238Y-152805771D02*
X197719762Y-152805771D01*
X197719762Y-152805771D02*
X197624524Y-152853390D01*
X197624524Y-152853390D02*
X197576905Y-152901009D01*
X197576905Y-152901009D02*
X197529286Y-152996247D01*
X205453333Y-149729580D02*
X205405714Y-149777200D01*
X205405714Y-149777200D02*
X205262857Y-149824819D01*
X205262857Y-149824819D02*
X205167619Y-149824819D01*
X205167619Y-149824819D02*
X205024762Y-149777200D01*
X205024762Y-149777200D02*
X204929524Y-149681961D01*
X204929524Y-149681961D02*
X204881905Y-149586723D01*
X204881905Y-149586723D02*
X204834286Y-149396247D01*
X204834286Y-149396247D02*
X204834286Y-149253390D01*
X204834286Y-149253390D02*
X204881905Y-149062914D01*
X204881905Y-149062914D02*
X204929524Y-148967676D01*
X204929524Y-148967676D02*
X205024762Y-148872438D01*
X205024762Y-148872438D02*
X205167619Y-148824819D01*
X205167619Y-148824819D02*
X205262857Y-148824819D01*
X205262857Y-148824819D02*
X205405714Y-148872438D01*
X205405714Y-148872438D02*
X205453333Y-148920057D01*
X206358095Y-148824819D02*
X205881905Y-148824819D01*
X205881905Y-148824819D02*
X205834286Y-149301009D01*
X205834286Y-149301009D02*
X205881905Y-149253390D01*
X205881905Y-149253390D02*
X205977143Y-149205771D01*
X205977143Y-149205771D02*
X206215238Y-149205771D01*
X206215238Y-149205771D02*
X206310476Y-149253390D01*
X206310476Y-149253390D02*
X206358095Y-149301009D01*
X206358095Y-149301009D02*
X206405714Y-149396247D01*
X206405714Y-149396247D02*
X206405714Y-149634342D01*
X206405714Y-149634342D02*
X206358095Y-149729580D01*
X206358095Y-149729580D02*
X206310476Y-149777200D01*
X206310476Y-149777200D02*
X206215238Y-149824819D01*
X206215238Y-149824819D02*
X205977143Y-149824819D01*
X205977143Y-149824819D02*
X205881905Y-149777200D01*
X205881905Y-149777200D02*
X205834286Y-149729580D01*
X190173333Y-142459580D02*
X190125714Y-142507200D01*
X190125714Y-142507200D02*
X189982857Y-142554819D01*
X189982857Y-142554819D02*
X189887619Y-142554819D01*
X189887619Y-142554819D02*
X189744762Y-142507200D01*
X189744762Y-142507200D02*
X189649524Y-142411961D01*
X189649524Y-142411961D02*
X189601905Y-142316723D01*
X189601905Y-142316723D02*
X189554286Y-142126247D01*
X189554286Y-142126247D02*
X189554286Y-141983390D01*
X189554286Y-141983390D02*
X189601905Y-141792914D01*
X189601905Y-141792914D02*
X189649524Y-141697676D01*
X189649524Y-141697676D02*
X189744762Y-141602438D01*
X189744762Y-141602438D02*
X189887619Y-141554819D01*
X189887619Y-141554819D02*
X189982857Y-141554819D01*
X189982857Y-141554819D02*
X190125714Y-141602438D01*
X190125714Y-141602438D02*
X190173333Y-141650057D01*
X191030476Y-141888152D02*
X191030476Y-142554819D01*
X190792381Y-141507200D02*
X190554286Y-142221485D01*
X190554286Y-142221485D02*
X191173333Y-142221485D01*
X190173333Y-139949580D02*
X190125714Y-139997200D01*
X190125714Y-139997200D02*
X189982857Y-140044819D01*
X189982857Y-140044819D02*
X189887619Y-140044819D01*
X189887619Y-140044819D02*
X189744762Y-139997200D01*
X189744762Y-139997200D02*
X189649524Y-139901961D01*
X189649524Y-139901961D02*
X189601905Y-139806723D01*
X189601905Y-139806723D02*
X189554286Y-139616247D01*
X189554286Y-139616247D02*
X189554286Y-139473390D01*
X189554286Y-139473390D02*
X189601905Y-139282914D01*
X189601905Y-139282914D02*
X189649524Y-139187676D01*
X189649524Y-139187676D02*
X189744762Y-139092438D01*
X189744762Y-139092438D02*
X189887619Y-139044819D01*
X189887619Y-139044819D02*
X189982857Y-139044819D01*
X189982857Y-139044819D02*
X190125714Y-139092438D01*
X190125714Y-139092438D02*
X190173333Y-139140057D01*
X190506667Y-139044819D02*
X191125714Y-139044819D01*
X191125714Y-139044819D02*
X190792381Y-139425771D01*
X190792381Y-139425771D02*
X190935238Y-139425771D01*
X190935238Y-139425771D02*
X191030476Y-139473390D01*
X191030476Y-139473390D02*
X191078095Y-139521009D01*
X191078095Y-139521009D02*
X191125714Y-139616247D01*
X191125714Y-139616247D02*
X191125714Y-139854342D01*
X191125714Y-139854342D02*
X191078095Y-139949580D01*
X191078095Y-139949580D02*
X191030476Y-139997200D01*
X191030476Y-139997200D02*
X190935238Y-140044819D01*
X190935238Y-140044819D02*
X190649524Y-140044819D01*
X190649524Y-140044819D02*
X190554286Y-139997200D01*
X190554286Y-139997200D02*
X190506667Y-139949580D01*
X190173333Y-137439580D02*
X190125714Y-137487200D01*
X190125714Y-137487200D02*
X189982857Y-137534819D01*
X189982857Y-137534819D02*
X189887619Y-137534819D01*
X189887619Y-137534819D02*
X189744762Y-137487200D01*
X189744762Y-137487200D02*
X189649524Y-137391961D01*
X189649524Y-137391961D02*
X189601905Y-137296723D01*
X189601905Y-137296723D02*
X189554286Y-137106247D01*
X189554286Y-137106247D02*
X189554286Y-136963390D01*
X189554286Y-136963390D02*
X189601905Y-136772914D01*
X189601905Y-136772914D02*
X189649524Y-136677676D01*
X189649524Y-136677676D02*
X189744762Y-136582438D01*
X189744762Y-136582438D02*
X189887619Y-136534819D01*
X189887619Y-136534819D02*
X189982857Y-136534819D01*
X189982857Y-136534819D02*
X190125714Y-136582438D01*
X190125714Y-136582438D02*
X190173333Y-136630057D01*
X190554286Y-136630057D02*
X190601905Y-136582438D01*
X190601905Y-136582438D02*
X190697143Y-136534819D01*
X190697143Y-136534819D02*
X190935238Y-136534819D01*
X190935238Y-136534819D02*
X191030476Y-136582438D01*
X191030476Y-136582438D02*
X191078095Y-136630057D01*
X191078095Y-136630057D02*
X191125714Y-136725295D01*
X191125714Y-136725295D02*
X191125714Y-136820533D01*
X191125714Y-136820533D02*
X191078095Y-136963390D01*
X191078095Y-136963390D02*
X190506667Y-137534819D01*
X190506667Y-137534819D02*
X191125714Y-137534819D01*
X190173333Y-134929580D02*
X190125714Y-134977200D01*
X190125714Y-134977200D02*
X189982857Y-135024819D01*
X189982857Y-135024819D02*
X189887619Y-135024819D01*
X189887619Y-135024819D02*
X189744762Y-134977200D01*
X189744762Y-134977200D02*
X189649524Y-134881961D01*
X189649524Y-134881961D02*
X189601905Y-134786723D01*
X189601905Y-134786723D02*
X189554286Y-134596247D01*
X189554286Y-134596247D02*
X189554286Y-134453390D01*
X189554286Y-134453390D02*
X189601905Y-134262914D01*
X189601905Y-134262914D02*
X189649524Y-134167676D01*
X189649524Y-134167676D02*
X189744762Y-134072438D01*
X189744762Y-134072438D02*
X189887619Y-134024819D01*
X189887619Y-134024819D02*
X189982857Y-134024819D01*
X189982857Y-134024819D02*
X190125714Y-134072438D01*
X190125714Y-134072438D02*
X190173333Y-134120057D01*
X191125714Y-135024819D02*
X190554286Y-135024819D01*
X190840000Y-135024819D02*
X190840000Y-134024819D01*
X190840000Y-134024819D02*
X190744762Y-134167676D01*
X190744762Y-134167676D02*
X190649524Y-134262914D01*
X190649524Y-134262914D02*
X190554286Y-134310533D01*
X108454819Y-98166666D02*
X107978628Y-98499999D01*
X108454819Y-98738094D02*
X107454819Y-98738094D01*
X107454819Y-98738094D02*
X107454819Y-98357142D01*
X107454819Y-98357142D02*
X107502438Y-98261904D01*
X107502438Y-98261904D02*
X107550057Y-98214285D01*
X107550057Y-98214285D02*
X107645295Y-98166666D01*
X107645295Y-98166666D02*
X107788152Y-98166666D01*
X107788152Y-98166666D02*
X107883390Y-98214285D01*
X107883390Y-98214285D02*
X107931009Y-98261904D01*
X107931009Y-98261904D02*
X107978628Y-98357142D01*
X107978628Y-98357142D02*
X107978628Y-98738094D01*
X107454819Y-97261904D02*
X107454819Y-97738094D01*
X107454819Y-97738094D02*
X107931009Y-97785713D01*
X107931009Y-97785713D02*
X107883390Y-97738094D01*
X107883390Y-97738094D02*
X107835771Y-97642856D01*
X107835771Y-97642856D02*
X107835771Y-97404761D01*
X107835771Y-97404761D02*
X107883390Y-97309523D01*
X107883390Y-97309523D02*
X107931009Y-97261904D01*
X107931009Y-97261904D02*
X108026247Y-97214285D01*
X108026247Y-97214285D02*
X108264342Y-97214285D01*
X108264342Y-97214285D02*
X108359580Y-97261904D01*
X108359580Y-97261904D02*
X108407200Y-97309523D01*
X108407200Y-97309523D02*
X108454819Y-97404761D01*
X108454819Y-97404761D02*
X108454819Y-97642856D01*
X108454819Y-97642856D02*
X108407200Y-97738094D01*
X108407200Y-97738094D02*
X108359580Y-97785713D01*
X107954819Y-104761904D02*
X108764342Y-104761904D01*
X108764342Y-104761904D02*
X108859580Y-104714285D01*
X108859580Y-104714285D02*
X108907200Y-104666666D01*
X108907200Y-104666666D02*
X108954819Y-104571428D01*
X108954819Y-104571428D02*
X108954819Y-104380952D01*
X108954819Y-104380952D02*
X108907200Y-104285714D01*
X108907200Y-104285714D02*
X108859580Y-104238095D01*
X108859580Y-104238095D02*
X108764342Y-104190476D01*
X108764342Y-104190476D02*
X107954819Y-104190476D01*
X108288152Y-103285714D02*
X108954819Y-103285714D01*
X107907200Y-103523809D02*
X108621485Y-103761904D01*
X108621485Y-103761904D02*
X108621485Y-103142857D01*
X113333333Y-108609580D02*
X113285714Y-108657200D01*
X113285714Y-108657200D02*
X113142857Y-108704819D01*
X113142857Y-108704819D02*
X113047619Y-108704819D01*
X113047619Y-108704819D02*
X112904762Y-108657200D01*
X112904762Y-108657200D02*
X112809524Y-108561961D01*
X112809524Y-108561961D02*
X112761905Y-108466723D01*
X112761905Y-108466723D02*
X112714286Y-108276247D01*
X112714286Y-108276247D02*
X112714286Y-108133390D01*
X112714286Y-108133390D02*
X112761905Y-107942914D01*
X112761905Y-107942914D02*
X112809524Y-107847676D01*
X112809524Y-107847676D02*
X112904762Y-107752438D01*
X112904762Y-107752438D02*
X113047619Y-107704819D01*
X113047619Y-107704819D02*
X113142857Y-107704819D01*
X113142857Y-107704819D02*
X113285714Y-107752438D01*
X113285714Y-107752438D02*
X113333333Y-107800057D01*
X113904762Y-108133390D02*
X113809524Y-108085771D01*
X113809524Y-108085771D02*
X113761905Y-108038152D01*
X113761905Y-108038152D02*
X113714286Y-107942914D01*
X113714286Y-107942914D02*
X113714286Y-107895295D01*
X113714286Y-107895295D02*
X113761905Y-107800057D01*
X113761905Y-107800057D02*
X113809524Y-107752438D01*
X113809524Y-107752438D02*
X113904762Y-107704819D01*
X113904762Y-107704819D02*
X114095238Y-107704819D01*
X114095238Y-107704819D02*
X114190476Y-107752438D01*
X114190476Y-107752438D02*
X114238095Y-107800057D01*
X114238095Y-107800057D02*
X114285714Y-107895295D01*
X114285714Y-107895295D02*
X114285714Y-107942914D01*
X114285714Y-107942914D02*
X114238095Y-108038152D01*
X114238095Y-108038152D02*
X114190476Y-108085771D01*
X114190476Y-108085771D02*
X114095238Y-108133390D01*
X114095238Y-108133390D02*
X113904762Y-108133390D01*
X113904762Y-108133390D02*
X113809524Y-108181009D01*
X113809524Y-108181009D02*
X113761905Y-108228628D01*
X113761905Y-108228628D02*
X113714286Y-108323866D01*
X113714286Y-108323866D02*
X113714286Y-108514342D01*
X113714286Y-108514342D02*
X113761905Y-108609580D01*
X113761905Y-108609580D02*
X113809524Y-108657200D01*
X113809524Y-108657200D02*
X113904762Y-108704819D01*
X113904762Y-108704819D02*
X114095238Y-108704819D01*
X114095238Y-108704819D02*
X114190476Y-108657200D01*
X114190476Y-108657200D02*
X114238095Y-108609580D01*
X114238095Y-108609580D02*
X114285714Y-108514342D01*
X114285714Y-108514342D02*
X114285714Y-108323866D01*
X114285714Y-108323866D02*
X114238095Y-108228628D01*
X114238095Y-108228628D02*
X114190476Y-108181009D01*
X114190476Y-108181009D02*
X114095238Y-108133390D01*
X99404819Y-96083333D02*
X100119104Y-96083333D01*
X100119104Y-96083333D02*
X100261961Y-96130952D01*
X100261961Y-96130952D02*
X100357200Y-96226190D01*
X100357200Y-96226190D02*
X100404819Y-96369047D01*
X100404819Y-96369047D02*
X100404819Y-96464285D01*
X100404819Y-95083333D02*
X100404819Y-95654761D01*
X100404819Y-95369047D02*
X99404819Y-95369047D01*
X99404819Y-95369047D02*
X99547676Y-95464285D01*
X99547676Y-95464285D02*
X99642914Y-95559523D01*
X99642914Y-95559523D02*
X99690533Y-95654761D01*
X110333333Y-108539580D02*
X110285714Y-108587200D01*
X110285714Y-108587200D02*
X110142857Y-108634819D01*
X110142857Y-108634819D02*
X110047619Y-108634819D01*
X110047619Y-108634819D02*
X109904762Y-108587200D01*
X109904762Y-108587200D02*
X109809524Y-108491961D01*
X109809524Y-108491961D02*
X109761905Y-108396723D01*
X109761905Y-108396723D02*
X109714286Y-108206247D01*
X109714286Y-108206247D02*
X109714286Y-108063390D01*
X109714286Y-108063390D02*
X109761905Y-107872914D01*
X109761905Y-107872914D02*
X109809524Y-107777676D01*
X109809524Y-107777676D02*
X109904762Y-107682438D01*
X109904762Y-107682438D02*
X110047619Y-107634819D01*
X110047619Y-107634819D02*
X110142857Y-107634819D01*
X110142857Y-107634819D02*
X110285714Y-107682438D01*
X110285714Y-107682438D02*
X110333333Y-107730057D01*
X110809524Y-108634819D02*
X111000000Y-108634819D01*
X111000000Y-108634819D02*
X111095238Y-108587200D01*
X111095238Y-108587200D02*
X111142857Y-108539580D01*
X111142857Y-108539580D02*
X111238095Y-108396723D01*
X111238095Y-108396723D02*
X111285714Y-108206247D01*
X111285714Y-108206247D02*
X111285714Y-107825295D01*
X111285714Y-107825295D02*
X111238095Y-107730057D01*
X111238095Y-107730057D02*
X111190476Y-107682438D01*
X111190476Y-107682438D02*
X111095238Y-107634819D01*
X111095238Y-107634819D02*
X110904762Y-107634819D01*
X110904762Y-107634819D02*
X110809524Y-107682438D01*
X110809524Y-107682438D02*
X110761905Y-107730057D01*
X110761905Y-107730057D02*
X110714286Y-107825295D01*
X110714286Y-107825295D02*
X110714286Y-108063390D01*
X110714286Y-108063390D02*
X110761905Y-108158628D01*
X110761905Y-108158628D02*
X110809524Y-108206247D01*
X110809524Y-108206247D02*
X110904762Y-108253866D01*
X110904762Y-108253866D02*
X111095238Y-108253866D01*
X111095238Y-108253866D02*
X111190476Y-108206247D01*
X111190476Y-108206247D02*
X111238095Y-108158628D01*
X111238095Y-108158628D02*
X111285714Y-108063390D01*
X149607142Y-103109580D02*
X149559523Y-103157200D01*
X149559523Y-103157200D02*
X149416666Y-103204819D01*
X149416666Y-103204819D02*
X149321428Y-103204819D01*
X149321428Y-103204819D02*
X149178571Y-103157200D01*
X149178571Y-103157200D02*
X149083333Y-103061961D01*
X149083333Y-103061961D02*
X149035714Y-102966723D01*
X149035714Y-102966723D02*
X148988095Y-102776247D01*
X148988095Y-102776247D02*
X148988095Y-102633390D01*
X148988095Y-102633390D02*
X149035714Y-102442914D01*
X149035714Y-102442914D02*
X149083333Y-102347676D01*
X149083333Y-102347676D02*
X149178571Y-102252438D01*
X149178571Y-102252438D02*
X149321428Y-102204819D01*
X149321428Y-102204819D02*
X149416666Y-102204819D01*
X149416666Y-102204819D02*
X149559523Y-102252438D01*
X149559523Y-102252438D02*
X149607142Y-102300057D01*
X150559523Y-103204819D02*
X149988095Y-103204819D01*
X150273809Y-103204819D02*
X150273809Y-102204819D01*
X150273809Y-102204819D02*
X150178571Y-102347676D01*
X150178571Y-102347676D02*
X150083333Y-102442914D01*
X150083333Y-102442914D02*
X149988095Y-102490533D01*
X150892857Y-102204819D02*
X151511904Y-102204819D01*
X151511904Y-102204819D02*
X151178571Y-102585771D01*
X151178571Y-102585771D02*
X151321428Y-102585771D01*
X151321428Y-102585771D02*
X151416666Y-102633390D01*
X151416666Y-102633390D02*
X151464285Y-102681009D01*
X151464285Y-102681009D02*
X151511904Y-102776247D01*
X151511904Y-102776247D02*
X151511904Y-103014342D01*
X151511904Y-103014342D02*
X151464285Y-103109580D01*
X151464285Y-103109580D02*
X151416666Y-103157200D01*
X151416666Y-103157200D02*
X151321428Y-103204819D01*
X151321428Y-103204819D02*
X151035714Y-103204819D01*
X151035714Y-103204819D02*
X150940476Y-103157200D01*
X150940476Y-103157200D02*
X150892857Y-103109580D01*
X144109580Y-94392857D02*
X144157200Y-94440476D01*
X144157200Y-94440476D02*
X144204819Y-94583333D01*
X144204819Y-94583333D02*
X144204819Y-94678571D01*
X144204819Y-94678571D02*
X144157200Y-94821428D01*
X144157200Y-94821428D02*
X144061961Y-94916666D01*
X144061961Y-94916666D02*
X143966723Y-94964285D01*
X143966723Y-94964285D02*
X143776247Y-95011904D01*
X143776247Y-95011904D02*
X143633390Y-95011904D01*
X143633390Y-95011904D02*
X143442914Y-94964285D01*
X143442914Y-94964285D02*
X143347676Y-94916666D01*
X143347676Y-94916666D02*
X143252438Y-94821428D01*
X143252438Y-94821428D02*
X143204819Y-94678571D01*
X143204819Y-94678571D02*
X143204819Y-94583333D01*
X143204819Y-94583333D02*
X143252438Y-94440476D01*
X143252438Y-94440476D02*
X143300057Y-94392857D01*
X144204819Y-93440476D02*
X144204819Y-94011904D01*
X144204819Y-93726190D02*
X143204819Y-93726190D01*
X143204819Y-93726190D02*
X143347676Y-93821428D01*
X143347676Y-93821428D02*
X143442914Y-93916666D01*
X143442914Y-93916666D02*
X143490533Y-94011904D01*
X143538152Y-92583333D02*
X144204819Y-92583333D01*
X143157200Y-92821428D02*
X143871485Y-93059523D01*
X143871485Y-93059523D02*
X143871485Y-92440476D01*
X148138095Y-92954819D02*
X148138095Y-93764342D01*
X148138095Y-93764342D02*
X148185714Y-93859580D01*
X148185714Y-93859580D02*
X148233333Y-93907200D01*
X148233333Y-93907200D02*
X148328571Y-93954819D01*
X148328571Y-93954819D02*
X148519047Y-93954819D01*
X148519047Y-93954819D02*
X148614285Y-93907200D01*
X148614285Y-93907200D02*
X148661904Y-93859580D01*
X148661904Y-93859580D02*
X148709523Y-93764342D01*
X148709523Y-93764342D02*
X148709523Y-92954819D01*
X149661904Y-92954819D02*
X149185714Y-92954819D01*
X149185714Y-92954819D02*
X149138095Y-93431009D01*
X149138095Y-93431009D02*
X149185714Y-93383390D01*
X149185714Y-93383390D02*
X149280952Y-93335771D01*
X149280952Y-93335771D02*
X149519047Y-93335771D01*
X149519047Y-93335771D02*
X149614285Y-93383390D01*
X149614285Y-93383390D02*
X149661904Y-93431009D01*
X149661904Y-93431009D02*
X149709523Y-93526247D01*
X149709523Y-93526247D02*
X149709523Y-93764342D01*
X149709523Y-93764342D02*
X149661904Y-93859580D01*
X149661904Y-93859580D02*
X149614285Y-93907200D01*
X149614285Y-93907200D02*
X149519047Y-93954819D01*
X149519047Y-93954819D02*
X149280952Y-93954819D01*
X149280952Y-93954819D02*
X149185714Y-93907200D01*
X149185714Y-93907200D02*
X149138095Y-93859580D01*
X90524819Y-81417857D02*
X90048628Y-81751190D01*
X90524819Y-81989285D02*
X89524819Y-81989285D01*
X89524819Y-81989285D02*
X89524819Y-81608333D01*
X89524819Y-81608333D02*
X89572438Y-81513095D01*
X89572438Y-81513095D02*
X89620057Y-81465476D01*
X89620057Y-81465476D02*
X89715295Y-81417857D01*
X89715295Y-81417857D02*
X89858152Y-81417857D01*
X89858152Y-81417857D02*
X89953390Y-81465476D01*
X89953390Y-81465476D02*
X90001009Y-81513095D01*
X90001009Y-81513095D02*
X90048628Y-81608333D01*
X90048628Y-81608333D02*
X90048628Y-81989285D01*
X90524819Y-80465476D02*
X90524819Y-81036904D01*
X90524819Y-80751190D02*
X89524819Y-80751190D01*
X89524819Y-80751190D02*
X89667676Y-80846428D01*
X89667676Y-80846428D02*
X89762914Y-80941666D01*
X89762914Y-80941666D02*
X89810533Y-81036904D01*
X89953390Y-79894047D02*
X89905771Y-79989285D01*
X89905771Y-79989285D02*
X89858152Y-80036904D01*
X89858152Y-80036904D02*
X89762914Y-80084523D01*
X89762914Y-80084523D02*
X89715295Y-80084523D01*
X89715295Y-80084523D02*
X89620057Y-80036904D01*
X89620057Y-80036904D02*
X89572438Y-79989285D01*
X89572438Y-79989285D02*
X89524819Y-79894047D01*
X89524819Y-79894047D02*
X89524819Y-79703571D01*
X89524819Y-79703571D02*
X89572438Y-79608333D01*
X89572438Y-79608333D02*
X89620057Y-79560714D01*
X89620057Y-79560714D02*
X89715295Y-79513095D01*
X89715295Y-79513095D02*
X89762914Y-79513095D01*
X89762914Y-79513095D02*
X89858152Y-79560714D01*
X89858152Y-79560714D02*
X89905771Y-79608333D01*
X89905771Y-79608333D02*
X89953390Y-79703571D01*
X89953390Y-79703571D02*
X89953390Y-79894047D01*
X89953390Y-79894047D02*
X90001009Y-79989285D01*
X90001009Y-79989285D02*
X90048628Y-80036904D01*
X90048628Y-80036904D02*
X90143866Y-80084523D01*
X90143866Y-80084523D02*
X90334342Y-80084523D01*
X90334342Y-80084523D02*
X90429580Y-80036904D01*
X90429580Y-80036904D02*
X90477200Y-79989285D01*
X90477200Y-79989285D02*
X90524819Y-79894047D01*
X90524819Y-79894047D02*
X90524819Y-79703571D01*
X90524819Y-79703571D02*
X90477200Y-79608333D01*
X90477200Y-79608333D02*
X90429580Y-79560714D01*
X90429580Y-79560714D02*
X90334342Y-79513095D01*
X90334342Y-79513095D02*
X90143866Y-79513095D01*
X90143866Y-79513095D02*
X90048628Y-79560714D01*
X90048628Y-79560714D02*
X90001009Y-79608333D01*
X90001009Y-79608333D02*
X89953390Y-79703571D01*
X123254819Y-58566666D02*
X122778628Y-58899999D01*
X123254819Y-59138094D02*
X122254819Y-59138094D01*
X122254819Y-59138094D02*
X122254819Y-58757142D01*
X122254819Y-58757142D02*
X122302438Y-58661904D01*
X122302438Y-58661904D02*
X122350057Y-58614285D01*
X122350057Y-58614285D02*
X122445295Y-58566666D01*
X122445295Y-58566666D02*
X122588152Y-58566666D01*
X122588152Y-58566666D02*
X122683390Y-58614285D01*
X122683390Y-58614285D02*
X122731009Y-58661904D01*
X122731009Y-58661904D02*
X122778628Y-58757142D01*
X122778628Y-58757142D02*
X122778628Y-59138094D01*
X122254819Y-57709523D02*
X122254819Y-57899999D01*
X122254819Y-57899999D02*
X122302438Y-57995237D01*
X122302438Y-57995237D02*
X122350057Y-58042856D01*
X122350057Y-58042856D02*
X122492914Y-58138094D01*
X122492914Y-58138094D02*
X122683390Y-58185713D01*
X122683390Y-58185713D02*
X123064342Y-58185713D01*
X123064342Y-58185713D02*
X123159580Y-58138094D01*
X123159580Y-58138094D02*
X123207200Y-58090475D01*
X123207200Y-58090475D02*
X123254819Y-57995237D01*
X123254819Y-57995237D02*
X123254819Y-57804761D01*
X123254819Y-57804761D02*
X123207200Y-57709523D01*
X123207200Y-57709523D02*
X123159580Y-57661904D01*
X123159580Y-57661904D02*
X123064342Y-57614285D01*
X123064342Y-57614285D02*
X122826247Y-57614285D01*
X122826247Y-57614285D02*
X122731009Y-57661904D01*
X122731009Y-57661904D02*
X122683390Y-57709523D01*
X122683390Y-57709523D02*
X122635771Y-57804761D01*
X122635771Y-57804761D02*
X122635771Y-57995237D01*
X122635771Y-57995237D02*
X122683390Y-58090475D01*
X122683390Y-58090475D02*
X122731009Y-58138094D01*
X122731009Y-58138094D02*
X122826247Y-58185713D01*
X116938095Y-63304819D02*
X116938095Y-64114342D01*
X116938095Y-64114342D02*
X116985714Y-64209580D01*
X116985714Y-64209580D02*
X117033333Y-64257200D01*
X117033333Y-64257200D02*
X117128571Y-64304819D01*
X117128571Y-64304819D02*
X117319047Y-64304819D01*
X117319047Y-64304819D02*
X117414285Y-64257200D01*
X117414285Y-64257200D02*
X117461904Y-64209580D01*
X117461904Y-64209580D02*
X117509523Y-64114342D01*
X117509523Y-64114342D02*
X117509523Y-63304819D01*
X118509523Y-64304819D02*
X117938095Y-64304819D01*
X118223809Y-64304819D02*
X118223809Y-63304819D01*
X118223809Y-63304819D02*
X118128571Y-63447676D01*
X118128571Y-63447676D02*
X118033333Y-63542914D01*
X118033333Y-63542914D02*
X117938095Y-63590533D01*
X126454819Y-78667857D02*
X125978628Y-79001190D01*
X126454819Y-79239285D02*
X125454819Y-79239285D01*
X125454819Y-79239285D02*
X125454819Y-78858333D01*
X125454819Y-78858333D02*
X125502438Y-78763095D01*
X125502438Y-78763095D02*
X125550057Y-78715476D01*
X125550057Y-78715476D02*
X125645295Y-78667857D01*
X125645295Y-78667857D02*
X125788152Y-78667857D01*
X125788152Y-78667857D02*
X125883390Y-78715476D01*
X125883390Y-78715476D02*
X125931009Y-78763095D01*
X125931009Y-78763095D02*
X125978628Y-78858333D01*
X125978628Y-78858333D02*
X125978628Y-79239285D01*
X126454819Y-77715476D02*
X126454819Y-78286904D01*
X126454819Y-78001190D02*
X125454819Y-78001190D01*
X125454819Y-78001190D02*
X125597676Y-78096428D01*
X125597676Y-78096428D02*
X125692914Y-78191666D01*
X125692914Y-78191666D02*
X125740533Y-78286904D01*
X126454819Y-76763095D02*
X126454819Y-77334523D01*
X126454819Y-77048809D02*
X125454819Y-77048809D01*
X125454819Y-77048809D02*
X125597676Y-77144047D01*
X125597676Y-77144047D02*
X125692914Y-77239285D01*
X125692914Y-77239285D02*
X125740533Y-77334523D01*
X108929580Y-70367857D02*
X108977200Y-70415476D01*
X108977200Y-70415476D02*
X109024819Y-70558333D01*
X109024819Y-70558333D02*
X109024819Y-70653571D01*
X109024819Y-70653571D02*
X108977200Y-70796428D01*
X108977200Y-70796428D02*
X108881961Y-70891666D01*
X108881961Y-70891666D02*
X108786723Y-70939285D01*
X108786723Y-70939285D02*
X108596247Y-70986904D01*
X108596247Y-70986904D02*
X108453390Y-70986904D01*
X108453390Y-70986904D02*
X108262914Y-70939285D01*
X108262914Y-70939285D02*
X108167676Y-70891666D01*
X108167676Y-70891666D02*
X108072438Y-70796428D01*
X108072438Y-70796428D02*
X108024819Y-70653571D01*
X108024819Y-70653571D02*
X108024819Y-70558333D01*
X108024819Y-70558333D02*
X108072438Y-70415476D01*
X108072438Y-70415476D02*
X108120057Y-70367857D01*
X109024819Y-69415476D02*
X109024819Y-69986904D01*
X109024819Y-69701190D02*
X108024819Y-69701190D01*
X108024819Y-69701190D02*
X108167676Y-69796428D01*
X108167676Y-69796428D02*
X108262914Y-69891666D01*
X108262914Y-69891666D02*
X108310533Y-69986904D01*
X108024819Y-68796428D02*
X108024819Y-68701190D01*
X108024819Y-68701190D02*
X108072438Y-68605952D01*
X108072438Y-68605952D02*
X108120057Y-68558333D01*
X108120057Y-68558333D02*
X108215295Y-68510714D01*
X108215295Y-68510714D02*
X108405771Y-68463095D01*
X108405771Y-68463095D02*
X108643866Y-68463095D01*
X108643866Y-68463095D02*
X108834342Y-68510714D01*
X108834342Y-68510714D02*
X108929580Y-68558333D01*
X108929580Y-68558333D02*
X108977200Y-68605952D01*
X108977200Y-68605952D02*
X109024819Y-68701190D01*
X109024819Y-68701190D02*
X109024819Y-68796428D01*
X109024819Y-68796428D02*
X108977200Y-68891666D01*
X108977200Y-68891666D02*
X108929580Y-68939285D01*
X108929580Y-68939285D02*
X108834342Y-68986904D01*
X108834342Y-68986904D02*
X108643866Y-69034523D01*
X108643866Y-69034523D02*
X108405771Y-69034523D01*
X108405771Y-69034523D02*
X108215295Y-68986904D01*
X108215295Y-68986904D02*
X108120057Y-68939285D01*
X108120057Y-68939285D02*
X108072438Y-68891666D01*
X108072438Y-68891666D02*
X108024819Y-68796428D01*
X124804819Y-58566666D02*
X124328628Y-58899999D01*
X124804819Y-59138094D02*
X123804819Y-59138094D01*
X123804819Y-59138094D02*
X123804819Y-58757142D01*
X123804819Y-58757142D02*
X123852438Y-58661904D01*
X123852438Y-58661904D02*
X123900057Y-58614285D01*
X123900057Y-58614285D02*
X123995295Y-58566666D01*
X123995295Y-58566666D02*
X124138152Y-58566666D01*
X124138152Y-58566666D02*
X124233390Y-58614285D01*
X124233390Y-58614285D02*
X124281009Y-58661904D01*
X124281009Y-58661904D02*
X124328628Y-58757142D01*
X124328628Y-58757142D02*
X124328628Y-59138094D01*
X123804819Y-58233332D02*
X123804819Y-57566666D01*
X123804819Y-57566666D02*
X124804819Y-57995237D01*
X124954819Y-78667857D02*
X124478628Y-79001190D01*
X124954819Y-79239285D02*
X123954819Y-79239285D01*
X123954819Y-79239285D02*
X123954819Y-78858333D01*
X123954819Y-78858333D02*
X124002438Y-78763095D01*
X124002438Y-78763095D02*
X124050057Y-78715476D01*
X124050057Y-78715476D02*
X124145295Y-78667857D01*
X124145295Y-78667857D02*
X124288152Y-78667857D01*
X124288152Y-78667857D02*
X124383390Y-78715476D01*
X124383390Y-78715476D02*
X124431009Y-78763095D01*
X124431009Y-78763095D02*
X124478628Y-78858333D01*
X124478628Y-78858333D02*
X124478628Y-79239285D01*
X124954819Y-77715476D02*
X124954819Y-78286904D01*
X124954819Y-78001190D02*
X123954819Y-78001190D01*
X123954819Y-78001190D02*
X124097676Y-78096428D01*
X124097676Y-78096428D02*
X124192914Y-78191666D01*
X124192914Y-78191666D02*
X124240533Y-78286904D01*
X124050057Y-77334523D02*
X124002438Y-77286904D01*
X124002438Y-77286904D02*
X123954819Y-77191666D01*
X123954819Y-77191666D02*
X123954819Y-76953571D01*
X123954819Y-76953571D02*
X124002438Y-76858333D01*
X124002438Y-76858333D02*
X124050057Y-76810714D01*
X124050057Y-76810714D02*
X124145295Y-76763095D01*
X124145295Y-76763095D02*
X124240533Y-76763095D01*
X124240533Y-76763095D02*
X124383390Y-76810714D01*
X124383390Y-76810714D02*
X124954819Y-77382142D01*
X124954819Y-77382142D02*
X124954819Y-76763095D01*
X121659580Y-58617857D02*
X121707200Y-58665476D01*
X121707200Y-58665476D02*
X121754819Y-58808333D01*
X121754819Y-58808333D02*
X121754819Y-58903571D01*
X121754819Y-58903571D02*
X121707200Y-59046428D01*
X121707200Y-59046428D02*
X121611961Y-59141666D01*
X121611961Y-59141666D02*
X121516723Y-59189285D01*
X121516723Y-59189285D02*
X121326247Y-59236904D01*
X121326247Y-59236904D02*
X121183390Y-59236904D01*
X121183390Y-59236904D02*
X120992914Y-59189285D01*
X120992914Y-59189285D02*
X120897676Y-59141666D01*
X120897676Y-59141666D02*
X120802438Y-59046428D01*
X120802438Y-59046428D02*
X120754819Y-58903571D01*
X120754819Y-58903571D02*
X120754819Y-58808333D01*
X120754819Y-58808333D02*
X120802438Y-58665476D01*
X120802438Y-58665476D02*
X120850057Y-58617857D01*
X121754819Y-57665476D02*
X121754819Y-58236904D01*
X121754819Y-57951190D02*
X120754819Y-57951190D01*
X120754819Y-57951190D02*
X120897676Y-58046428D01*
X120897676Y-58046428D02*
X120992914Y-58141666D01*
X120992914Y-58141666D02*
X121040533Y-58236904D01*
X120850057Y-57284523D02*
X120802438Y-57236904D01*
X120802438Y-57236904D02*
X120754819Y-57141666D01*
X120754819Y-57141666D02*
X120754819Y-56903571D01*
X120754819Y-56903571D02*
X120802438Y-56808333D01*
X120802438Y-56808333D02*
X120850057Y-56760714D01*
X120850057Y-56760714D02*
X120945295Y-56713095D01*
X120945295Y-56713095D02*
X121040533Y-56713095D01*
X121040533Y-56713095D02*
X121183390Y-56760714D01*
X121183390Y-56760714D02*
X121754819Y-57332142D01*
X121754819Y-57332142D02*
X121754819Y-56713095D01*
X101082142Y-64524819D02*
X100748809Y-64048628D01*
X100510714Y-64524819D02*
X100510714Y-63524819D01*
X100510714Y-63524819D02*
X100891666Y-63524819D01*
X100891666Y-63524819D02*
X100986904Y-63572438D01*
X100986904Y-63572438D02*
X101034523Y-63620057D01*
X101034523Y-63620057D02*
X101082142Y-63715295D01*
X101082142Y-63715295D02*
X101082142Y-63858152D01*
X101082142Y-63858152D02*
X101034523Y-63953390D01*
X101034523Y-63953390D02*
X100986904Y-64001009D01*
X100986904Y-64001009D02*
X100891666Y-64048628D01*
X100891666Y-64048628D02*
X100510714Y-64048628D01*
X102034523Y-64524819D02*
X101463095Y-64524819D01*
X101748809Y-64524819D02*
X101748809Y-63524819D01*
X101748809Y-63524819D02*
X101653571Y-63667676D01*
X101653571Y-63667676D02*
X101558333Y-63762914D01*
X101558333Y-63762914D02*
X101463095Y-63810533D01*
X102367857Y-63524819D02*
X103034523Y-63524819D01*
X103034523Y-63524819D02*
X102605952Y-64524819D01*
X127954819Y-78667857D02*
X127478628Y-79001190D01*
X127954819Y-79239285D02*
X126954819Y-79239285D01*
X126954819Y-79239285D02*
X126954819Y-78858333D01*
X126954819Y-78858333D02*
X127002438Y-78763095D01*
X127002438Y-78763095D02*
X127050057Y-78715476D01*
X127050057Y-78715476D02*
X127145295Y-78667857D01*
X127145295Y-78667857D02*
X127288152Y-78667857D01*
X127288152Y-78667857D02*
X127383390Y-78715476D01*
X127383390Y-78715476D02*
X127431009Y-78763095D01*
X127431009Y-78763095D02*
X127478628Y-78858333D01*
X127478628Y-78858333D02*
X127478628Y-79239285D01*
X127954819Y-77715476D02*
X127954819Y-78286904D01*
X127954819Y-78001190D02*
X126954819Y-78001190D01*
X126954819Y-78001190D02*
X127097676Y-78096428D01*
X127097676Y-78096428D02*
X127192914Y-78191666D01*
X127192914Y-78191666D02*
X127240533Y-78286904D01*
X126954819Y-77096428D02*
X126954819Y-77001190D01*
X126954819Y-77001190D02*
X127002438Y-76905952D01*
X127002438Y-76905952D02*
X127050057Y-76858333D01*
X127050057Y-76858333D02*
X127145295Y-76810714D01*
X127145295Y-76810714D02*
X127335771Y-76763095D01*
X127335771Y-76763095D02*
X127573866Y-76763095D01*
X127573866Y-76763095D02*
X127764342Y-76810714D01*
X127764342Y-76810714D02*
X127859580Y-76858333D01*
X127859580Y-76858333D02*
X127907200Y-76905952D01*
X127907200Y-76905952D02*
X127954819Y-77001190D01*
X127954819Y-77001190D02*
X127954819Y-77096428D01*
X127954819Y-77096428D02*
X127907200Y-77191666D01*
X127907200Y-77191666D02*
X127859580Y-77239285D01*
X127859580Y-77239285D02*
X127764342Y-77286904D01*
X127764342Y-77286904D02*
X127573866Y-77334523D01*
X127573866Y-77334523D02*
X127335771Y-77334523D01*
X127335771Y-77334523D02*
X127145295Y-77286904D01*
X127145295Y-77286904D02*
X127050057Y-77239285D01*
X127050057Y-77239285D02*
X127002438Y-77191666D01*
X127002438Y-77191666D02*
X126954819Y-77096428D01*
X107278628Y-65526190D02*
X107754819Y-65526190D01*
X106754819Y-65859523D02*
X107278628Y-65526190D01*
X107278628Y-65526190D02*
X106754819Y-65192857D01*
X107754819Y-64335714D02*
X107754819Y-64907142D01*
X107754819Y-64621428D02*
X106754819Y-64621428D01*
X106754819Y-64621428D02*
X106897676Y-64716666D01*
X106897676Y-64716666D02*
X106992914Y-64811904D01*
X106992914Y-64811904D02*
X107040533Y-64907142D01*
X114429580Y-68642857D02*
X114477200Y-68690476D01*
X114477200Y-68690476D02*
X114524819Y-68833333D01*
X114524819Y-68833333D02*
X114524819Y-68928571D01*
X114524819Y-68928571D02*
X114477200Y-69071428D01*
X114477200Y-69071428D02*
X114381961Y-69166666D01*
X114381961Y-69166666D02*
X114286723Y-69214285D01*
X114286723Y-69214285D02*
X114096247Y-69261904D01*
X114096247Y-69261904D02*
X113953390Y-69261904D01*
X113953390Y-69261904D02*
X113762914Y-69214285D01*
X113762914Y-69214285D02*
X113667676Y-69166666D01*
X113667676Y-69166666D02*
X113572438Y-69071428D01*
X113572438Y-69071428D02*
X113524819Y-68928571D01*
X113524819Y-68928571D02*
X113524819Y-68833333D01*
X113524819Y-68833333D02*
X113572438Y-68690476D01*
X113572438Y-68690476D02*
X113620057Y-68642857D01*
X114524819Y-67690476D02*
X114524819Y-68261904D01*
X114524819Y-67976190D02*
X113524819Y-67976190D01*
X113524819Y-67976190D02*
X113667676Y-68071428D01*
X113667676Y-68071428D02*
X113762914Y-68166666D01*
X113762914Y-68166666D02*
X113810533Y-68261904D01*
X114524819Y-66738095D02*
X114524819Y-67309523D01*
X114524819Y-67023809D02*
X113524819Y-67023809D01*
X113524819Y-67023809D02*
X113667676Y-67119047D01*
X113667676Y-67119047D02*
X113762914Y-67214285D01*
X113762914Y-67214285D02*
X113810533Y-67309523D01*
X126404819Y-58566666D02*
X125928628Y-58899999D01*
X126404819Y-59138094D02*
X125404819Y-59138094D01*
X125404819Y-59138094D02*
X125404819Y-58757142D01*
X125404819Y-58757142D02*
X125452438Y-58661904D01*
X125452438Y-58661904D02*
X125500057Y-58614285D01*
X125500057Y-58614285D02*
X125595295Y-58566666D01*
X125595295Y-58566666D02*
X125738152Y-58566666D01*
X125738152Y-58566666D02*
X125833390Y-58614285D01*
X125833390Y-58614285D02*
X125881009Y-58661904D01*
X125881009Y-58661904D02*
X125928628Y-58757142D01*
X125928628Y-58757142D02*
X125928628Y-59138094D01*
X125833390Y-57995237D02*
X125785771Y-58090475D01*
X125785771Y-58090475D02*
X125738152Y-58138094D01*
X125738152Y-58138094D02*
X125642914Y-58185713D01*
X125642914Y-58185713D02*
X125595295Y-58185713D01*
X125595295Y-58185713D02*
X125500057Y-58138094D01*
X125500057Y-58138094D02*
X125452438Y-58090475D01*
X125452438Y-58090475D02*
X125404819Y-57995237D01*
X125404819Y-57995237D02*
X125404819Y-57804761D01*
X125404819Y-57804761D02*
X125452438Y-57709523D01*
X125452438Y-57709523D02*
X125500057Y-57661904D01*
X125500057Y-57661904D02*
X125595295Y-57614285D01*
X125595295Y-57614285D02*
X125642914Y-57614285D01*
X125642914Y-57614285D02*
X125738152Y-57661904D01*
X125738152Y-57661904D02*
X125785771Y-57709523D01*
X125785771Y-57709523D02*
X125833390Y-57804761D01*
X125833390Y-57804761D02*
X125833390Y-57995237D01*
X125833390Y-57995237D02*
X125881009Y-58090475D01*
X125881009Y-58090475D02*
X125928628Y-58138094D01*
X125928628Y-58138094D02*
X126023866Y-58185713D01*
X126023866Y-58185713D02*
X126214342Y-58185713D01*
X126214342Y-58185713D02*
X126309580Y-58138094D01*
X126309580Y-58138094D02*
X126357200Y-58090475D01*
X126357200Y-58090475D02*
X126404819Y-57995237D01*
X126404819Y-57995237D02*
X126404819Y-57804761D01*
X126404819Y-57804761D02*
X126357200Y-57709523D01*
X126357200Y-57709523D02*
X126309580Y-57661904D01*
X126309580Y-57661904D02*
X126214342Y-57614285D01*
X126214342Y-57614285D02*
X126023866Y-57614285D01*
X126023866Y-57614285D02*
X125928628Y-57661904D01*
X125928628Y-57661904D02*
X125881009Y-57709523D01*
X125881009Y-57709523D02*
X125833390Y-57804761D01*
X132384819Y-70341666D02*
X131908628Y-70674999D01*
X132384819Y-70913094D02*
X131384819Y-70913094D01*
X131384819Y-70913094D02*
X131384819Y-70532142D01*
X131384819Y-70532142D02*
X131432438Y-70436904D01*
X131432438Y-70436904D02*
X131480057Y-70389285D01*
X131480057Y-70389285D02*
X131575295Y-70341666D01*
X131575295Y-70341666D02*
X131718152Y-70341666D01*
X131718152Y-70341666D02*
X131813390Y-70389285D01*
X131813390Y-70389285D02*
X131861009Y-70436904D01*
X131861009Y-70436904D02*
X131908628Y-70532142D01*
X131908628Y-70532142D02*
X131908628Y-70913094D01*
X132384819Y-69865475D02*
X132384819Y-69674999D01*
X132384819Y-69674999D02*
X132337200Y-69579761D01*
X132337200Y-69579761D02*
X132289580Y-69532142D01*
X132289580Y-69532142D02*
X132146723Y-69436904D01*
X132146723Y-69436904D02*
X131956247Y-69389285D01*
X131956247Y-69389285D02*
X131575295Y-69389285D01*
X131575295Y-69389285D02*
X131480057Y-69436904D01*
X131480057Y-69436904D02*
X131432438Y-69484523D01*
X131432438Y-69484523D02*
X131384819Y-69579761D01*
X131384819Y-69579761D02*
X131384819Y-69770237D01*
X131384819Y-69770237D02*
X131432438Y-69865475D01*
X131432438Y-69865475D02*
X131480057Y-69913094D01*
X131480057Y-69913094D02*
X131575295Y-69960713D01*
X131575295Y-69960713D02*
X131813390Y-69960713D01*
X131813390Y-69960713D02*
X131908628Y-69913094D01*
X131908628Y-69913094D02*
X131956247Y-69865475D01*
X131956247Y-69865475D02*
X132003866Y-69770237D01*
X132003866Y-69770237D02*
X132003866Y-69579761D01*
X132003866Y-69579761D02*
X131956247Y-69484523D01*
X131956247Y-69484523D02*
X131908628Y-69436904D01*
X131908628Y-69436904D02*
X131813390Y-69389285D01*
X114082142Y-59454819D02*
X113748809Y-58978628D01*
X113510714Y-59454819D02*
X113510714Y-58454819D01*
X113510714Y-58454819D02*
X113891666Y-58454819D01*
X113891666Y-58454819D02*
X113986904Y-58502438D01*
X113986904Y-58502438D02*
X114034523Y-58550057D01*
X114034523Y-58550057D02*
X114082142Y-58645295D01*
X114082142Y-58645295D02*
X114082142Y-58788152D01*
X114082142Y-58788152D02*
X114034523Y-58883390D01*
X114034523Y-58883390D02*
X113986904Y-58931009D01*
X113986904Y-58931009D02*
X113891666Y-58978628D01*
X113891666Y-58978628D02*
X113510714Y-58978628D01*
X115034523Y-59454819D02*
X114463095Y-59454819D01*
X114748809Y-59454819D02*
X114748809Y-58454819D01*
X114748809Y-58454819D02*
X114653571Y-58597676D01*
X114653571Y-58597676D02*
X114558333Y-58692914D01*
X114558333Y-58692914D02*
X114463095Y-58740533D01*
X115891666Y-58454819D02*
X115701190Y-58454819D01*
X115701190Y-58454819D02*
X115605952Y-58502438D01*
X115605952Y-58502438D02*
X115558333Y-58550057D01*
X115558333Y-58550057D02*
X115463095Y-58692914D01*
X115463095Y-58692914D02*
X115415476Y-58883390D01*
X115415476Y-58883390D02*
X115415476Y-59264342D01*
X115415476Y-59264342D02*
X115463095Y-59359580D01*
X115463095Y-59359580D02*
X115510714Y-59407200D01*
X115510714Y-59407200D02*
X115605952Y-59454819D01*
X115605952Y-59454819D02*
X115796428Y-59454819D01*
X115796428Y-59454819D02*
X115891666Y-59407200D01*
X115891666Y-59407200D02*
X115939285Y-59359580D01*
X115939285Y-59359580D02*
X115986904Y-59264342D01*
X115986904Y-59264342D02*
X115986904Y-59026247D01*
X115986904Y-59026247D02*
X115939285Y-58931009D01*
X115939285Y-58931009D02*
X115891666Y-58883390D01*
X115891666Y-58883390D02*
X115796428Y-58835771D01*
X115796428Y-58835771D02*
X115605952Y-58835771D01*
X115605952Y-58835771D02*
X115510714Y-58883390D01*
X115510714Y-58883390D02*
X115463095Y-58931009D01*
X115463095Y-58931009D02*
X115415476Y-59026247D01*
X133024819Y-61867857D02*
X132548628Y-62201190D01*
X133024819Y-62439285D02*
X132024819Y-62439285D01*
X132024819Y-62439285D02*
X132024819Y-62058333D01*
X132024819Y-62058333D02*
X132072438Y-61963095D01*
X132072438Y-61963095D02*
X132120057Y-61915476D01*
X132120057Y-61915476D02*
X132215295Y-61867857D01*
X132215295Y-61867857D02*
X132358152Y-61867857D01*
X132358152Y-61867857D02*
X132453390Y-61915476D01*
X132453390Y-61915476D02*
X132501009Y-61963095D01*
X132501009Y-61963095D02*
X132548628Y-62058333D01*
X132548628Y-62058333D02*
X132548628Y-62439285D01*
X133024819Y-60915476D02*
X133024819Y-61486904D01*
X133024819Y-61201190D02*
X132024819Y-61201190D01*
X132024819Y-61201190D02*
X132167676Y-61296428D01*
X132167676Y-61296428D02*
X132262914Y-61391666D01*
X132262914Y-61391666D02*
X132310533Y-61486904D01*
X132024819Y-60010714D02*
X132024819Y-60486904D01*
X132024819Y-60486904D02*
X132501009Y-60534523D01*
X132501009Y-60534523D02*
X132453390Y-60486904D01*
X132453390Y-60486904D02*
X132405771Y-60391666D01*
X132405771Y-60391666D02*
X132405771Y-60153571D01*
X132405771Y-60153571D02*
X132453390Y-60058333D01*
X132453390Y-60058333D02*
X132501009Y-60010714D01*
X132501009Y-60010714D02*
X132596247Y-59963095D01*
X132596247Y-59963095D02*
X132834342Y-59963095D01*
X132834342Y-59963095D02*
X132929580Y-60010714D01*
X132929580Y-60010714D02*
X132977200Y-60058333D01*
X132977200Y-60058333D02*
X133024819Y-60153571D01*
X133024819Y-60153571D02*
X133024819Y-60391666D01*
X133024819Y-60391666D02*
X132977200Y-60486904D01*
X132977200Y-60486904D02*
X132929580Y-60534523D01*
X145024819Y-69642857D02*
X144548628Y-69976190D01*
X145024819Y-70214285D02*
X144024819Y-70214285D01*
X144024819Y-70214285D02*
X144024819Y-69833333D01*
X144024819Y-69833333D02*
X144072438Y-69738095D01*
X144072438Y-69738095D02*
X144120057Y-69690476D01*
X144120057Y-69690476D02*
X144215295Y-69642857D01*
X144215295Y-69642857D02*
X144358152Y-69642857D01*
X144358152Y-69642857D02*
X144453390Y-69690476D01*
X144453390Y-69690476D02*
X144501009Y-69738095D01*
X144501009Y-69738095D02*
X144548628Y-69833333D01*
X144548628Y-69833333D02*
X144548628Y-70214285D01*
X145024819Y-68690476D02*
X145024819Y-69261904D01*
X145024819Y-68976190D02*
X144024819Y-68976190D01*
X144024819Y-68976190D02*
X144167676Y-69071428D01*
X144167676Y-69071428D02*
X144262914Y-69166666D01*
X144262914Y-69166666D02*
X144310533Y-69261904D01*
X144358152Y-67833333D02*
X145024819Y-67833333D01*
X143977200Y-68071428D02*
X144691485Y-68309523D01*
X144691485Y-68309523D02*
X144691485Y-67690476D01*
X206146666Y-70334819D02*
X206146666Y-71049104D01*
X206146666Y-71049104D02*
X206099047Y-71191961D01*
X206099047Y-71191961D02*
X206003809Y-71287200D01*
X206003809Y-71287200D02*
X205860952Y-71334819D01*
X205860952Y-71334819D02*
X205765714Y-71334819D01*
X206575238Y-70430057D02*
X206622857Y-70382438D01*
X206622857Y-70382438D02*
X206718095Y-70334819D01*
X206718095Y-70334819D02*
X206956190Y-70334819D01*
X206956190Y-70334819D02*
X207051428Y-70382438D01*
X207051428Y-70382438D02*
X207099047Y-70430057D01*
X207099047Y-70430057D02*
X207146666Y-70525295D01*
X207146666Y-70525295D02*
X207146666Y-70620533D01*
X207146666Y-70620533D02*
X207099047Y-70763390D01*
X207099047Y-70763390D02*
X206527619Y-71334819D01*
X206527619Y-71334819D02*
X207146666Y-71334819D01*
X233316666Y-70334819D02*
X233316666Y-71049104D01*
X233316666Y-71049104D02*
X233269047Y-71191961D01*
X233269047Y-71191961D02*
X233173809Y-71287200D01*
X233173809Y-71287200D02*
X233030952Y-71334819D01*
X233030952Y-71334819D02*
X232935714Y-71334819D01*
X233697619Y-70334819D02*
X234316666Y-70334819D01*
X234316666Y-70334819D02*
X233983333Y-70715771D01*
X233983333Y-70715771D02*
X234126190Y-70715771D01*
X234126190Y-70715771D02*
X234221428Y-70763390D01*
X234221428Y-70763390D02*
X234269047Y-70811009D01*
X234269047Y-70811009D02*
X234316666Y-70906247D01*
X234316666Y-70906247D02*
X234316666Y-71144342D01*
X234316666Y-71144342D02*
X234269047Y-71239580D01*
X234269047Y-71239580D02*
X234221428Y-71287200D01*
X234221428Y-71287200D02*
X234126190Y-71334819D01*
X234126190Y-71334819D02*
X233840476Y-71334819D01*
X233840476Y-71334819D02*
X233745238Y-71287200D01*
X233745238Y-71287200D02*
X233697619Y-71239580D01*
X214454819Y-77261904D02*
X215264342Y-77261904D01*
X215264342Y-77261904D02*
X215359580Y-77214285D01*
X215359580Y-77214285D02*
X215407200Y-77166666D01*
X215407200Y-77166666D02*
X215454819Y-77071428D01*
X215454819Y-77071428D02*
X215454819Y-76880952D01*
X215454819Y-76880952D02*
X215407200Y-76785714D01*
X215407200Y-76785714D02*
X215359580Y-76738095D01*
X215359580Y-76738095D02*
X215264342Y-76690476D01*
X215264342Y-76690476D02*
X214454819Y-76690476D01*
X214454819Y-76309523D02*
X214454819Y-75690476D01*
X214454819Y-75690476D02*
X214835771Y-76023809D01*
X214835771Y-76023809D02*
X214835771Y-75880952D01*
X214835771Y-75880952D02*
X214883390Y-75785714D01*
X214883390Y-75785714D02*
X214931009Y-75738095D01*
X214931009Y-75738095D02*
X215026247Y-75690476D01*
X215026247Y-75690476D02*
X215264342Y-75690476D01*
X215264342Y-75690476D02*
X215359580Y-75738095D01*
X215359580Y-75738095D02*
X215407200Y-75785714D01*
X215407200Y-75785714D02*
X215454819Y-75880952D01*
X215454819Y-75880952D02*
X215454819Y-76166666D01*
X215454819Y-76166666D02*
X215407200Y-76261904D01*
X215407200Y-76261904D02*
X215359580Y-76309523D01*
D11*
%TO.C,U2*%
X206440000Y-145660000D02*
X203565000Y-145660000D01*
X206440000Y-148880000D02*
X207940000Y-148880000D01*
X206440000Y-148880000D02*
X204940000Y-148880000D01*
X206440000Y-145660000D02*
X207940000Y-145660000D01*
%TO.C,R4*%
X190102742Y-154092500D02*
X190577258Y-154092500D01*
X190102742Y-153047500D02*
X190577258Y-153047500D01*
%TO.C,R3*%
X190102742Y-151582500D02*
X190577258Y-151582500D01*
X190102742Y-150537500D02*
X190577258Y-150537500D01*
%TO.C,R2*%
X190102742Y-149072500D02*
X190577258Y-149072500D01*
X190102742Y-148027500D02*
X190577258Y-148027500D01*
%TO.C,R1*%
X190102742Y-146562500D02*
X190577258Y-146562500D01*
X190102742Y-145517500D02*
X190577258Y-145517500D01*
%TO.C,L1*%
X204997936Y-156360000D02*
X206202064Y-156360000D01*
X204997936Y-153640000D02*
X206202064Y-153640000D01*
%TO.C,J9*%
X193270000Y-141420000D02*
X196120000Y-144020000D01*
X193270000Y-138270000D02*
X193270000Y-141420000D01*
X208970000Y-144020000D02*
X208970000Y-135720000D01*
X196120000Y-135720000D02*
X193270000Y-138270000D01*
X208970000Y-135720000D02*
X196120000Y-135720000D01*
X196120000Y-144020000D02*
X208970000Y-144020000D01*
%TO.C,C7*%
X194160000Y-151415563D02*
X195224437Y-152480000D01*
X193132500Y-147222500D02*
X193920000Y-147222500D01*
X200980000Y-145660000D02*
X200980000Y-148010000D01*
X193526250Y-146828750D02*
X193526250Y-147616250D01*
X194160000Y-146724437D02*
X194160000Y-148010000D01*
X195224437Y-145660000D02*
X200980000Y-145660000D01*
X200980000Y-152480000D02*
X200980000Y-150130000D01*
X195224437Y-152480000D02*
X200980000Y-152480000D01*
X194160000Y-146724437D02*
X195224437Y-145660000D01*
X194160000Y-151415563D02*
X194160000Y-150130000D01*
%TO.C,C6*%
X200965000Y-153810000D02*
X192905000Y-153810000D01*
X192905000Y-153810000D02*
X192905000Y-158330000D01*
X192905000Y-158330000D02*
X200965000Y-158330000D01*
%TO.C,C5*%
X204908748Y-150310000D02*
X206331252Y-150310000D01*
X204908748Y-152130000D02*
X206331252Y-152130000D01*
%TO.C,C4*%
X190199420Y-144040000D02*
X190480580Y-144040000D01*
X190199420Y-143020000D02*
X190480580Y-143020000D01*
%TO.C,C3*%
X190199420Y-141530000D02*
X190480580Y-141530000D01*
X190199420Y-140510000D02*
X190480580Y-140510000D01*
%TO.C,C2*%
X190199420Y-139020000D02*
X190480580Y-139020000D01*
X190199420Y-138000000D02*
X190480580Y-138000000D01*
%TO.C,C1*%
X190199420Y-136510000D02*
X190480580Y-136510000D01*
X190199420Y-135490000D02*
X190480580Y-135490000D01*
%TO.C,R5*%
X108522500Y-100262742D02*
X108522500Y-100737258D01*
X107477500Y-100262742D02*
X107477500Y-100737258D01*
%TO.C,U4*%
X109375000Y-104620000D02*
X109795000Y-104620000D01*
X109375000Y-104620000D02*
X109375000Y-86380000D01*
X109795000Y-104620000D02*
X109795000Y-105000000D01*
X128195000Y-104620000D02*
X128815000Y-104620000D01*
X128815000Y-104620000D02*
X128815000Y-103620000D01*
X109375000Y-86380000D02*
X109795000Y-86380000D01*
X128195000Y-86380000D02*
X128815000Y-86380000D01*
X128815000Y-86380000D02*
X128815000Y-87380000D01*
%TO.C,C8*%
X113359420Y-106240000D02*
X113640580Y-106240000D01*
X113359420Y-107260000D02*
X113640580Y-107260000D01*
%TO.C,J1*%
X104050000Y-104860000D02*
X106460000Y-104860000D01*
X106460000Y-104860000D02*
X106460000Y-102450000D01*
X101040000Y-104560000D02*
X106160000Y-104560000D01*
X106160000Y-104560000D02*
X106160000Y-87940000D01*
X106160000Y-87940000D02*
X105160000Y-86940000D01*
X101040000Y-86940000D02*
X101040000Y-104560000D01*
X105160000Y-86940000D02*
X101040000Y-86940000D01*
%TO.C,C9*%
X110640580Y-107260000D02*
X110359420Y-107260000D01*
X110640580Y-106240000D02*
X110359420Y-106240000D01*
%TO.C,C13*%
X147134420Y-102240000D02*
X147415580Y-102240000D01*
X147134420Y-103260000D02*
X147415580Y-103260000D01*
%TO.C,C14*%
X142990000Y-96890580D02*
X142990000Y-96609420D01*
X144010000Y-96890580D02*
X144010000Y-96609420D01*
%TO.C,U5*%
X144800000Y-94590000D02*
X150810000Y-94590000D01*
X147050000Y-101410000D02*
X150810000Y-101410000D01*
X150810000Y-94590000D02*
X150810000Y-95850000D01*
X150810000Y-101410000D02*
X150810000Y-100150000D01*
%TO.C,R18*%
X90990000Y-80915580D02*
X90990000Y-80634420D01*
X92010000Y-80915580D02*
X92010000Y-80634420D01*
%TO.C,R6*%
X123360000Y-60684420D02*
X123360000Y-60965580D01*
X122340000Y-60684420D02*
X122340000Y-60965580D01*
D10*
%TO.C,U1*%
X120375000Y-64375000D02*
X120375000Y-64600000D01*
X120375000Y-64375000D02*
X120700000Y-64375000D01*
X120375000Y-64600000D02*
X118950000Y-64600000D01*
X120375000Y-71625000D02*
X120375000Y-71300000D01*
X120375000Y-71625000D02*
X120700000Y-71625000D01*
X127625000Y-64375000D02*
X127300000Y-64375000D01*
X127625000Y-64375000D02*
X127625000Y-64700000D01*
X127625000Y-71625000D02*
X127300000Y-71625000D01*
X127625000Y-71625000D02*
X127625000Y-71300000D01*
D11*
%TO.C,R11*%
X125477500Y-75437258D02*
X125477500Y-74962742D01*
X126522500Y-75437258D02*
X126522500Y-74962742D01*
%TO.C,C10*%
X109490000Y-69865580D02*
X109490000Y-69584420D01*
X110510000Y-69865580D02*
X110510000Y-69584420D01*
%TO.C,R7*%
X124860000Y-60734420D02*
X124860000Y-61015580D01*
X123840000Y-60734420D02*
X123840000Y-61015580D01*
%TO.C,R12*%
X123977500Y-75437258D02*
X123977500Y-74962742D01*
X125022500Y-75437258D02*
X125022500Y-74962742D01*
%TO.C,C12*%
X120790000Y-61015580D02*
X120790000Y-60734420D01*
X121810000Y-61015580D02*
X121810000Y-60734420D01*
%TO.C,R17*%
X101584420Y-64990000D02*
X101865580Y-64990000D01*
X101584420Y-66010000D02*
X101865580Y-66010000D01*
%TO.C,R10*%
X126977500Y-75262258D02*
X126977500Y-74787742D01*
X128022500Y-75262258D02*
X128022500Y-74787742D01*
%TO.C,Y1*%
X108100000Y-67750000D02*
X112600000Y-67750000D01*
X112600000Y-67750000D02*
X112600000Y-62350000D01*
%TO.C,C11*%
X114990000Y-68140580D02*
X114990000Y-67859420D01*
X116010000Y-68140580D02*
X116010000Y-67859420D01*
%TO.C,R8*%
X126460000Y-60684420D02*
X126460000Y-60965580D01*
X125440000Y-60684420D02*
X125440000Y-60965580D01*
%TO.C,R9*%
X131022500Y-69937742D02*
X131022500Y-70412258D01*
X129977500Y-69937742D02*
X129977500Y-70412258D01*
%TO.C,R16*%
X114584420Y-56990000D02*
X114865580Y-56990000D01*
X114584420Y-58010000D02*
X114865580Y-58010000D01*
%TO.C,R15*%
X133490000Y-61365580D02*
X133490000Y-61084420D01*
X134510000Y-61365580D02*
X134510000Y-61084420D01*
%TO.C,R14*%
X145490000Y-69140580D02*
X145490000Y-68859420D01*
X146510000Y-69140580D02*
X146510000Y-68859420D01*
%TO.C,J2*%
X198460000Y-73000000D02*
X198460000Y-77000000D01*
X198750000Y-71970000D02*
X198750000Y-77990000D01*
X198750000Y-77990000D02*
X214210000Y-77990000D01*
X199330000Y-71970000D02*
X199330000Y-72570000D01*
X199330000Y-72570000D02*
X200930000Y-72570000D01*
X200130000Y-76990000D02*
X200380000Y-76460000D01*
X200130000Y-76990000D02*
X212830000Y-76990000D01*
X200130000Y-77990000D02*
X200130000Y-76990000D01*
X200380000Y-76460000D02*
X212580000Y-76460000D01*
X200380000Y-77990000D02*
X200380000Y-76990000D01*
X200930000Y-72570000D02*
X200930000Y-71970000D01*
X201870000Y-71970000D02*
X201870000Y-72570000D01*
X201870000Y-72570000D02*
X203470000Y-72570000D01*
X203470000Y-72570000D02*
X203470000Y-71970000D01*
X204410000Y-71970000D02*
X204410000Y-72570000D01*
X204410000Y-72570000D02*
X206010000Y-72570000D01*
X206010000Y-72570000D02*
X206010000Y-71970000D01*
X206950000Y-71970000D02*
X206950000Y-72570000D01*
X206950000Y-72570000D02*
X208550000Y-72570000D01*
X208550000Y-72570000D02*
X208550000Y-71970000D01*
X209490000Y-71970000D02*
X209490000Y-72570000D01*
X209490000Y-72570000D02*
X211090000Y-72570000D01*
X211090000Y-72570000D02*
X211090000Y-71970000D01*
X212030000Y-71970000D02*
X212030000Y-72570000D01*
X212030000Y-72570000D02*
X213630000Y-72570000D01*
X212580000Y-76460000D02*
X212830000Y-76990000D01*
X212580000Y-77990000D02*
X212580000Y-76990000D01*
X212830000Y-76990000D02*
X212830000Y-77990000D01*
X213630000Y-72570000D02*
X213630000Y-71970000D01*
X214210000Y-71970000D02*
X198750000Y-71970000D01*
X214210000Y-77990000D02*
X214210000Y-71970000D01*
%TO.C,J3*%
X225630000Y-73000000D02*
X225630000Y-77000000D01*
X225920000Y-71970000D02*
X225920000Y-77990000D01*
X225920000Y-77990000D02*
X241380000Y-77990000D01*
X226500000Y-71970000D02*
X226500000Y-72570000D01*
X226500000Y-72570000D02*
X228100000Y-72570000D01*
X227300000Y-76990000D02*
X227550000Y-76460000D01*
X227300000Y-76990000D02*
X240000000Y-76990000D01*
X227300000Y-77990000D02*
X227300000Y-76990000D01*
X227550000Y-76460000D02*
X239750000Y-76460000D01*
X227550000Y-77990000D02*
X227550000Y-76990000D01*
X228100000Y-72570000D02*
X228100000Y-71970000D01*
X229040000Y-71970000D02*
X229040000Y-72570000D01*
X229040000Y-72570000D02*
X230640000Y-72570000D01*
X230640000Y-72570000D02*
X230640000Y-71970000D01*
X231580000Y-71970000D02*
X231580000Y-72570000D01*
X231580000Y-72570000D02*
X233180000Y-72570000D01*
X233180000Y-72570000D02*
X233180000Y-71970000D01*
X234120000Y-71970000D02*
X234120000Y-72570000D01*
X234120000Y-72570000D02*
X235720000Y-72570000D01*
X235720000Y-72570000D02*
X235720000Y-71970000D01*
X236660000Y-71970000D02*
X236660000Y-72570000D01*
X236660000Y-72570000D02*
X238260000Y-72570000D01*
X238260000Y-72570000D02*
X238260000Y-71970000D01*
X239200000Y-71970000D02*
X239200000Y-72570000D01*
X239200000Y-72570000D02*
X240800000Y-72570000D01*
X239750000Y-76460000D02*
X240000000Y-76990000D01*
X239750000Y-77990000D02*
X239750000Y-76990000D01*
X240000000Y-76990000D02*
X240000000Y-77990000D01*
X240800000Y-72570000D02*
X240800000Y-71970000D01*
X241380000Y-71970000D02*
X225920000Y-71970000D01*
X241380000Y-77990000D02*
X241380000Y-71970000D01*
D10*
%TO.C,U3*%
X215925000Y-79375000D02*
X216150000Y-79375000D01*
X215925000Y-79375000D02*
X215925000Y-73625000D01*
X216150000Y-79375000D02*
X216150000Y-80975000D01*
X224575000Y-79375000D02*
X224275000Y-79375000D01*
X224575000Y-79375000D02*
X224575000Y-73625000D01*
X215925000Y-73625000D02*
X216225000Y-73625000D01*
X224575000Y-73625000D02*
X224275000Y-73625000D01*
%TD*%
M02*
