M48
; DRILL file {KiCad 7.0.10-unknown-202401012134~036241c819~ubuntu22.04.1} date St 10. január 2024, 18:25:39
; FORMAT={-:-/ absolute / inch / decimal}
; #@! TF.CreationDate,2024-01-10T18:25:39+01:00
; #@! TF.GenerationSoftware,Kicad,Pcbnew,7.0.10-unknown-202401012134~036241c819~ubuntu22.04.1
; #@! TF.FileFunction,Plated,1,2,PTH
FMAT,2
INCH
; #@! TA.AperFunction,Plated,PTH,ViaDrill
T1C0.0157
; #@! TA.AperFunction,Plated,PTH,ComponentDrill
T2C0.0335
; #@! TA.AperFunction,Plated,PTH,ComponentDrill
T3C0.0469
%
G90
G05
T1
X4.0551Y-3.9764
X4.5276Y-4.3307
X5.1575Y-3.7795
T2
X3.7795Y-3.8976
X3.7795Y-3.9961
X3.7795Y-4.0945
X3.7795Y-4.1929
X3.7795Y-4.2913
X3.7795Y-4.3898
T3
X3.9764Y-6.1417
X4.0764Y-6.1417
X4.1764Y-6.1417
X4.2764Y-6.1417
X4.3764Y-6.1417
X4.4764Y-6.1417
X5.1693Y-6.1417
X5.2693Y-6.1417
X5.3693Y-6.1417
X5.4693Y-6.1417
X5.5693Y-6.1417
X5.6693Y-6.1417
M30
